<svg xmlns="http://www.w3.org/2000/svg" width="600" height="660" xmlns:xlink="http://www.w3.org/1999/xlink">
<defs>
  <radialGradient id="rg" gradientUnits="userSpaceOnUse" cx="220" cy="220" r="405">
    <stop style="stop-color:#fff;stop-opacity:.3" offset="0" />
    <stop style="stop-color:#fff;stop-opacity:.2" offset="0.2" />
    <stop style="stop-color:#666;stop-opacity:.1" offset="0.6" />
    <stop style="stop-color:#000;stop-opacity:.13" offset="1" />
  </radialGradient>
  <path id="shield" d="m 2 2 v 257 c 0 286 298 398 298 398 c 0 0 298 -112 298 -398 V 2 Z" />
</defs>
<use id="shine" fill="#080" xlink:href="#shield" />
<g id="rose" transform="translate(300 300) scale(1.5)">
	<g transform="rotate(36)">
		<path id="leaf" fill="#070" d="m 0 0 c -15 18 -24 43 -24 72 c 0 29 9 54 24 72 c 15 -18 24 -43 24 -72 c 0 -29 -9 -54 -24 -72 Z" />
		<use transform="rotate(72)" xlink:href="#leaf" />
		<use transform="rotate(144)" xlink:href="#leaf" />
		<use transform="rotate(216)" xlink:href="#leaf" />
		<use transform="rotate(288)" xlink:href="#leaf" />
		<g id="petals">
			<g id="g1">
				<path style="fill:#fd0;stroke:#000;stroke-width:0.2" d="M 0 -115 C -53 -115 -59.73 -86.15 -52 -75 L 0 0 L 52 -75 C 59.73 -86.15 53 -115 0 -115 Z" />
				<path fill="#330" d="m 0 -100 c 14 0 24 -4 32 -2 c 17 4 18 14 18 21 c 0 -8 -1 -18 -18 -22 c -8 -2 -18 1 -32 1 c -14 0 -24 -3 -32 -1 c -17 4 -18 14 -18 22 c 0 -7 1 -17 18 -21 c 8 -2 18 2 32 2 Z" />
				<path fill="#a50" d="M 0 -99 C 14 -99 24 -103 32 -101 C 49 -97 50 -86 50 -79 C 50 -85 49 -94 32 -98 C 24 -100 14 -92 0 -92 C -14 -92 -24 -100 -32 -98 C -49 -94 -50 -85 -50 -79 C -50 -86 -49 -97 -32 -101 C -24 -103 -14 -99 0 -99 Z" />
				<path fill="#330" d="M 0 -84 L -6 -68 C 0 -72 0 -72 6 -68 Z" />
				<path fill="#a50" d="M -5 -63 C -5 -65 -3 -67 0 -67 C 3 -67 5 -65 5 -63 C 5 -60 2 -56 0 -53 C -2 -56 -5 -60 -5 -63 Z" />
			</g>
			<use transform="rotate(72)" xlink:href="#g1" />
			<use transform="rotate(144)" xlink:href="#g1" />
			<use transform="rotate(216)" xlink:href="#g1" />
			<use transform="rotate(288)" xlink:href="#g1" />
		</g>
		<use transform="rotate(36) scale(0.55)" xlink:href="#petals" />
		<circle style="fill:#ff5;stroke:#330;stroke-width:1.5;stroke-opacity:0.4" r="20" />
		<circle style="fill:#ff9;stroke:#330;stroke-width:1.5;stroke-opacity:0.4" r="10" />
		<g id="g2" style="fill:#ff9;stroke:#330;stroke-width:1.25;stroke-opacity:0.4">
			<circle cy="25" r="4" />
			<circle cy="-25" r="4" />
		</g>
		<use transform="rotate(20)" xlink:href="#g2" />
		<use transform="rotate(40)" xlink:href="#g2" />
		<use transform="rotate(60)" xlink:href="#g2" />
		<use transform="rotate(80)" xlink:href="#g2" />
		<use transform="rotate(100)" xlink:href="#g2" />
		<use transform="rotate(120)" xlink:href="#g2" />
		<use transform="rotate(140)" xlink:href="#g2" />
		<use transform="rotate(160)" xlink:href="#g2" />
	</g>
</g>
<use id="shine" fill="url(#rg)" stroke="#000" stroke-width="3" xlink:href="#shield" />
</svg>