<?xml version="1.0" encoding="UTF-8"?>
<svg xmlns="http://www.w3.org/2000/svg" xmlns:xlink="http://www.w3.org/1999/xlink" width="600" height="660">
<style id="style_css_sheet" type="text/css">
.stag {
  fill:#000000;stroke:#ffdd00;stroke-width:1;
}
.stag-detail {
  fill:#ffdd00;stroke:none;
}
</style>
<defs>
  <radialGradient id="rg" gradientUnits="userSpaceOnUse" cx="220" cy="220" r="405">
    <stop style="stop-color:#fff;stop-opacity:.3" offset="0"/>
    <stop style="stop-color:#fff;stop-opacity:.2" offset=".2"/>
    <stop style="stop-color:#666;stop-opacity:.1" offset=".6"/>
    <stop style="stop-color:#000;stop-opacity:.13" offset="1"/>
  </radialGradient>
  <path id="shield" d="m2,2v257c0,286 298,398 298,398c0,0 298-112 298-398V2z"/>
</defs>
<use id="shine" xlink:href="#shield" fill="#ffdd00"/>
<g id="stag" class="stag" transform="rotate(-15,300,300)translate(300,0)scale(-1.2,1.2)translate(-150,0)">
  <g id="antlers">
    <path d="m 107.9,54.52 c 7.6,4.34 14.9,9.18 20,16.22 2.2,3.15 3.2,6.37 4.2,10.14 1.3,4.5 1,11.38 0.4,15.99 -0.8,5.43 -3.6,13.93 -3.6,13.93 l 14.4,-1.8 c 5.9,-7.1 18.5,-13.2 18.3,-28.35 -4.1,9.02 -11.9,13.63 -19.7,16 0,0 -0.2,-8.9 -1.1,-13.12 0,0 4.2,-6.76 5.9,-10.2 1.4,-3.04 1.9,-6.36 2.1,-9.74 0.1,-4.06 -1.7,-8.34 -1.9,-12.39 -0.1,-2.14 1,-6.37 1,-6.37 0,0 -3.9,3.61 -4.7,6.82 -0.9,3.66 0.6,9.35 0,13.06 -0.5,2.88 -1,5.41 -3.2,7.27 -0.5,0.45 -2,0.56 -2,0.56 -0.7,-2.19 -2.8,-4.67 -3.4,-7.15 0,0 -1.6,-5.74 -2.2,-9.01 -0.5,-2.99 -1.1,-6.48 -2,-9.41 -1.6,-5.63 -5.1,-9.85 -6.8,-15.54 -0.4,-1.58 -0.6,-4.85 -0.6,-4.85 0,0 -2.6,5.19 -2.6,8.17 0.1,4.56 3.8,8.17 4.7,12.67 0.6,2.71 -0.1,8.23 -0.1,8.23 -5.1,-4.57 -12.3,-5.47 -13.3,-11.66 -0.4,-2.65 1.5,-4 1.6,-6.99 0.2,-3.43 -0.2,-6.75 -0.9,-10.13 -0.5,-2.14 -2.2,-5.69 -3.4,-7.55 -2.1,-3.04 -4.3,-7.32 -4.3,-7.32 -0.1,-0.28 -1,4.45 0.5,9.57 1.2,4.45 2.4,9.07 2,13.69 -0.2,1.91 -0.8,3.83 -1.8,5.46 -0.6,0.96 -2.9,1.8 -2.9,1.8 -7.91,-1.85 -13.04,-7.37 -18.89,-11.26 -1.36,-0.73 -2.54,-1.75 -3.89,-2.31 -1.46,-0.56 -3.77,-1.52 -3.77,-1.52 0,0 1.01,2.65 2.19,4.39 5.18,7.72 12.22,13.18 21.24,18.08 0,0 -6.14,3.04 -10.42,2.42 -2.82,-0.45 -7.89,-3.38 -10.31,-4.95 -2.03,-1.3 -5.63,-2.99 -5.63,-2.99 0,0 1.97,3.83 3.71,5.97 2.48,2.99 7.61,5.86 11.38,6.65 3.72,0.79 6.65,0.62 10.42,0 3.07,-0.4 9.37,-2.48 9.37,-2.48 z"/>
    <path d="m 130.2,113.7 c 0,0 12.2,-7.8 16.7,-13.7 6.6,-9.21 9.5,-17.15 7.7,-24.92 -2.1,8.33 -8.9,18.25 -15.2,20.72 -5.8,2.31 -9.6,0.79 -12.3,-1.01 -3.5,-2.37 -5.4,-5.97 -4.8,-10.02 0.5,-3.1 1.7,-5.07 1.3,-8.17 -0.6,-4.9 -5.1,-9.46 -5.1,-9.46 0,0 1,5.46 0.3,9.57 -0.6,3.61 -2.6,6.87 -3.2,10.48 -0.5,3.6 2.7,11.04 2.7,11.04 0,0 -6.9,0 -9.5,-0.85 -3.1,-1.13 -7.4,-1.86 -8.98,-4.73 -1.8,-3.15 -1.85,-5.13 -1.57,-8.73 0.39,-4.28 1.85,-13.12 1.13,-17.35 -0.74,-4 -4.73,-7.32 -4.73,-7.32 0,0 1.01,6.2 0.5,9.58 -0.62,4.22 -2.48,7.6 -3.43,11.82 -0.85,3.72 -1.02,11.21 -1.02,11.21 0,0 -4.33,0.11 -6.14,-0.9 C 81.47,89.27 79.1,86.12 77.69,82.91 74.65,75.87 77.52,65.22 73.3,58.8 c -1.75,-2.7 -5.18,-4.39 -5.18,-4.39 0,0 1.46,5.8 2.08,8.73 1.13,5.24 -0.9,10.92 -0.34,16.22 0.23,2.14 1.52,6.08 1.52,6.08 0,0 -13.18,-5.12 -16.95,-10.59 -3.27,-4.62 -3.21,-15.26 -5.35,-20.5 -2.14,-5.12 -7.32,-8.67 -7.32,-8.67 0,0 2.25,6.53 2.59,11.54 0.34,4.96 -0.1,12.73 1.52,17.41 1.07,3.21 2.76,5.52 5.97,8.28 3.15,2.76 8.79,6.81 8.79,6.81 0,0 -5.64,0.68 -9.47,-0.22 -3.83,-0.85 -9.91,-3.83 -12.95,-5.69 -3.04,-1.8 -5.52,-4.4 -5.52,-4.4 0,0 0.73,5.19 3.21,8.34 2.48,3.15 7.66,6.25 13.74,7.89 6.14,1.68 15.94,-1.24 23.38,-0.34 2.53,0.28 4.78,0.45 7.43,1.29 8.84,2.99 18.02,5.11 26.65,8.71 3.3,1.3 5.5,3.4 8.6,5.1 2.2,1.2 4.8,6.9 4.8,6.9 z"/>
  </g>
  <g id="hooves">
    <g>
      <path d="m 295.6,187.8 c 3.6,4.7 5.9,10.5 14.6,15.9 -3,0.6 -6.3,1.1 -9.4,-0.4 0.6,2.4 4.2,5.8 6.2,7.9 -6.7,0 -10.5,-1.1 -14.5,-4 -4.2,-3.3 -7.9,-8.6 -11.1,-17 z"/>
      <path class="stag-detail" d="m 298.1,194.6 c 0.4,3.1 1.7,5.8 3.5,8.3 0.1,0.1 0.4,0.4 0.7,0.5 0.3,0.2 0.7,0.3 0.8,0.4 l -2.1,-0.1 0.1,1.1 c -1.9,-2.9 -3.4,-6.5 -3,-10.2 z"/>
    </g>
    <g>
      <path d="m 255,282.3 c -4,4.4 -9.4,7.8 -13.1,17.4 -1.3,-2.8 -2.5,-6 -1.5,-9.3 -2.3,1.1 -5.1,5.2 -6.8,7.5 -1.4,-6.5 -1,-10.4 1.2,-14.8 2.4,-4.8 7.1,-9.5 14.9,-14.2 z"/>
      <path class="stag-detail" d="m 248.5,286.2 c -3,0.9 -5.5,2.8 -7.7,5 -0.1,0.2 -0.3,0.5 -0.4,0.8 -0.1,0.4 -0.2,0.8 -0.3,0.9 l -0.3,-2.1 -1.1,0.4 c 2.8,-2.6 6.1,-4.7 9.8,-5 z"/>
    </g>
    <g>
      <path d="m 266.1,411.4 c 5.4,3.5 9.9,8.7 20.8,11.1 -2.8,1.9 -6,3.6 -9.7,3.2 1.6,2.2 6.5,4.5 9.3,5.9 -6.7,2.6 -11,2.9 -16,1.3 -5.6,-1.7 -11.3,-5.9 -17.7,-13.5 z"/>
      <path class="stag-detail" d="m 271.3,417.7 c 1.5,3 3.9,5.4 6.7,7.2 0.1,0.2 0.5,0.3 0.9,0.4 0.3,0 0.7,0 0.9,0.1 l -2.1,0.7 0.5,1.1 c -3.1,-2.4 -6,-5.6 -6.9,-9.5 z"/>
    </g>
    <g>
      <path d="m 137.9,481.1 c 3.8,5.3 6,11.8 15.4,18.1 -3.4,0.7 -7.1,1.1 -10.5,-0.8 0.7,2.8 4.4,6.7 6.5,9.1 -7.5,-0.2 -11.6,-1.6 -15.9,-5 -4.5,-3.7 -8.4,-9.9 -11.5,-19.3 z"/>
      <path class="stag-detail" d="m 140.4,488.8 c 0.2,3.4 1.5,6.5 3.4,9.3 0.1,0.1 0.4,0.5 0.7,0.6 0.4,0.3 0.8,0.4 0.9,0.5 l -2.3,-0.2 v 1.3 c -2,-3.4 -3.4,-7.5 -2.7,-11.5 z"/>
    </g>
  </g>
  <path id="stag-upper-limb" d="m 260.9,192.6 c -6.6,0.2 -12.5,0.5 -17.6,3.3 -2.9,1.5 -4.2,3.1 -5.1,6.2 -4.5,15 -3.6,46.7 -3.6,46.7 L 206,260.7 189.8,246.8 c 0,0 19.4,-27.9 26.4,-43.5 3.8,-8.6 5.3,-20.6 15.7,-22.6 15.6,-3.1 47.8,-1 47.8,-1 0,0 7.5,0.4 10.8,1.6 5.5,2.1 9,10 8.2,10.1 -5.1,-1.4 -10,-0.7 -14.3,5.3 l -6.2,-3.2 c -0.9,-0.5 -2.8,0.1 -3.5,1.1 -0.3,0.6 -0.9,1.7 -0.7,2.7 0.3,2 1.1,3 -1.3,2 -0.8,-0.3 -1.7,-0.8 -2.4,-1.2 -1.2,-0.6 -2.8,-2 -4.3,-3.2 -1.8,-1.5 -3.4,-2.3 -5.1,-2.3 z"/>
  <path id="stag-lower-limb" d="m 183.1,387 c -2.5,-2.3 -3.8,-6.7 -2.5,-9.9 0.8,-2.1 5.7,-3.6 5.7,-3.6 0,0 0.9,-8.8 2,-13 1.4,-4.9 5.7,-14 5.7,-14 0,0 -13.6,-0.4 -20,-2.3 -10.4,-2.9 -26.4,-11.7 -26.4,-11.7 l 4.8,-35.9 c 0,0 21.8,1.7 32.3,3.8 13.6,2.6 38.6,15.3 38.6,15.3 0,0 2.8,0.5 3.8,1.3 2.9,2.2 3.1,4.5 4.3,8.5 1.3,4.2 2.2,7.6 0.7,11.4 -0.8,1.9 -4.2,4.3 -4.2,4.3 0,0 -2.3,6.1 -3.3,8.5 -3.7,9.4 -12.1,12.4 -14.3,22.2 -0.8,3.6 0.5,7.6 2.3,10.8 1.9,3.3 5.1,5.8 8.5,7.7 10,5.6 23,8.9 33.9,12.6 4.3,1.4 8.3,2 11.6,4.1 0.9,0.6 2.7,2.2 3.2,3.3 l 2.2,4.6 c -7,-1.2 -8.6,-1.2 -10.7,0.5 -2.8,2.4 -2.4,6.7 -2.7,10.5 0,0 -4.4,-1.8 -6.2,-3.3 -2.6,-2.1 -3.2,-6.5 -6.2,-7.9 -2.5,-1.1 -4.9,0 -5.4,3.1 -0.2,1.5 0,3.1 0.7,4.9 1.9,4.9 -0.7,4 -3.9,1.8 -3,-2 -5.8,-3.8 -7.5,-6.2 -1.1,-1.5 -2.5,-2.9 -4.2,-5.1 -1.7,-2 -3.8,-4.7 -6.3,-6.7 -4.8,-3.7 -8.8,-6.6 -15,-9.2 -4.3,-1.9 -9.6,-3.7 -13.5,-5.6 -3,-1.4 -5.9,-2.7 -8,-4.8 z"/>
  <path id="stag-groin" d="m 158.9,317.5 c 0,0 3,0.9 4.3,1.8 0.9,0.6 2.4,2.4 2.4,2.4 l -9.8,17.5 -6.3,-6.1 z"/>
  <path id="stag-tongue" style="fill:#cc0000;" d="m 194.3,152.8 c -4.8,6.5 -11.9,1.9 -17.3,-1.1 -4.7,-2.5 -17.1,-2.8 -17.1,-2.8 l 3,-5.3 c 0,0 10,-1.5 15.5,2.6 5.1,3.8 9,8.3 15.9,6.6 z"/>
  <path id="stag-body" d="m 180.1,156.5 c -1.6,0.8 -3.8,0.9 -5.4,0.5 -5.9,-1.2 -11.5,-7.9 -19.8,-8.6 -5,-0.4 -13.5,3.1 -17.2,4.7 7.2,6.7 11.6,9.8 20.2,15.6 1.6,1 5.1,1.8 5.1,1.8 -0.5,0.6 -1.7,1.3 -3.3,1.5 -0.2,0.3 5.5,0.9 7.9,2.1 3.2,1.7 6.7,4.3 9.9,5.8 2.1,1 7.2,1.7 7.2,1.7 -1.1,1.1 -2.8,2.1 -3.7,2.3 0,0 10,1.9 14.7,5.5 2.4,1.8 4.1,5.5 6.4,7.5 1.8,1.6 6.6,3.1 6.6,3.1 -2,1 -3.7,0.6 -4.3,0.7 2.9,1.6 5.9,4.4 7.1,6.7 2.6,4.9 1.2,10.5 8.3,14.5 -1.7,0 -3.1,0.6 -5.3,-0.5 0.4,1.7 0.7,3.4 1,5.1 0,0 17.1,-7.5 25.5,-9.1 4.1,-0.8 8.4,-0.6 12.6,-1.1 3.6,-0.5 9.2,-2.2 9.2,-2.2 0,0 3.8,-1 5.7,-0.5 5.4,1.5 8.9,8.7 8.9,8.7 1.5,1.6 1.3,4.6 -0.3,8.1 -3.6,8.1 -10,22.8 -12.4,31.8 -1.3,4.7 -1.2,11.4 -3.3,15.9 -1.4,3 -2.9,4.4 -5.7,6.3 -1.3,0.9 -4.6,1.4 -4.6,1.4 1.4,-7.2 0.4,-11.1 -5.3,-14.2 0,0 1.3,-2.9 1.1,-4 -0.3,-0.9 -1.2,-1.6 -2,-2.2 -1.1,-0.7 -3.9,-0.6 -3.2,-1.6 l 0.8,-1.1 c 1.8,-2.6 6,-3.7 8.3,-5.3 1.8,-1.1 2.9,-3.4 3.8,-4.8 2.9,-4.9 3.6,-11.2 6.6,-18.2 0,0 0.9,-1.8 0.7,-2.7 -0.3,-1.2 -1,-1.5 -1.9,-2.3 -0.7,-0.7 -1.4,0.3 -3.1,1.2 -3,1.7 -8.3,4.9 -13.1,9.2 -7.1,6.1 -13.2,13.6 -21.4,18.8 -5.6,3.6 -12.7,7.1 -18.2,7.2 -2.4,0.1 -4.9,-4.5 -4.9,-4.5 -7.9,22.5 -37.8,44.2 -46.2,71.6 6.6,5.2 11.1,14.8 11.4,25.1 0.2,10.7 -4.1,22.2 -15.7,30.5 0,0 -14.9,7.3 -21.9,12.3 -3.3,2.4 -6.4,5.2 -8.7,8.5 -3,4.4 -4.3,7.3 -5.5,12.4 -3.1,13.1 -1.3,31 7.1,41.9 4,5.1 13.5,9.8 18.1,14.5 2.3,2.3 3.1,7.6 3.1,7.6 -4.2,-0.9 -8.2,-1.4 -11.1,-0.2 -2.3,1 -3.8,3.2 -4,7.5 0,0 -4.5,-1.2 -5.9,-2.8 -1.4,-1.7 -1.3,-3.4 -1.7,-5.4 -1.4,-3.6 -3.6,-4.8 -5.2,-5.3 -1.9,-0.6 -5.1,-0.7 -6.9,0.5 -2.5,1.7 -3.4,6.1 -5.1,5.8 -6.4,-0.9 -5.44,-20.4 -5.84,-25.3 -0.39,-5.4 0.68,-11.5 0.23,-16.6 -0.9,-9.5 -2.37,-17.7 -4.17,-27.1 -0.96,-5.1 -6.47,-13.3 -2.59,-16.7 3.83,-3.3 8.73,-4.2 12.57,-7 4.3,-7.9 9.2,-15.9 17.4,-23.7 -1.8,-3 -3.6,-6 -5.3,-9 0,0.3 0.1,0.6 0.1,0.8 -0.4,11.4 -10.9,15.3 -16.66,14.4 1.3,-0.7 2.48,-1.6 3.16,-3.4 -6.31,1.4 -11.78,1.6 -17.69,-1.1 1.69,-0.7 3.72,-0.4 4.84,-2.9 -4.45,0.3 -7.66,-0.8 -9.8,-2.7 -3.15,-2.9 -3.88,-7.6 -2.76,-12.4 6.26,10.9 16,8.1 21.29,0.4 3.44,-5.1 2.09,-8.5 2.31,-14 0.12,-2.5 2.51,-7.5 5.51,-9.1 0,-3.8 0.6,-7.5 2,-11.1 15.1,-40.1 24.5,-56 22.3,-70.6 -0.6,-10.3 1.7,-20.4 4.7,-23.7 -1,-2.6 -2.5,-4.3 -4.7,-6 -1,3.2 -3.1,4.8 -5,5.5 0,0 1.4,-4 0.3,-7.3 -1.4,-4.4 -6.7,-8 -8.5,-12.3 -1.2,-3 -0.9,-9.6 -0.9,-9.6 -2.3,3.9 -4,3 -6.3,3.2 0,0 1.9,-2.7 0.8,-5.5 -1.2,-3.1 -6.2,-8.6 -7.4,-11.7 -1.08,-3 -0.9,-9.5 -0.9,-9.5 -2.08,1.3 -3.09,3.3 -6.47,2.6 0,0 1.92,-3.5 1.58,-7.5 0,0 -1.13,-9.5 -1.24,-14.4 -0.11,-3.6 -0.17,-7.2 0.39,-10.7 1.86,-11.9 6.44,-17.6 6.44,-17.6 l -2.16,-0.6 c -9.4,-3.7 -15.6,-10.2 -23.54,-21.6 16.79,-0.6 27.3,1.6 36.5,10.4 4.9,-5.9 17.4,-12.54 34.1,-6.3 15.3,7.3 34.4,18.5 46.1,25.2 1.2,0.6 2.1,1.5 2.7,2.1 0.5,6.4 -2.3,10.3 -5.5,12.6 0,0 -2.3,1.4 -5.8,0.4 -2.3,-0.6 -8.3,-1.6 -10.7,-1.8 -3.7,-0.2 -7.4,1.4 -7.4,1.4 3.5,3.7 7.1,6.5 15,10.5 z"/>
  <path class="stag-detail" d="m 208,229.7 0.6,0.3 6.9,-3.8 0.8,0.3 -7.6,4.2 -0.1,0.1 -0.2,-0.1 -0.8,-0.5 v -0.1 h -0.1 c -1,-2.1 -4.3,-7.9 -8.2,-10.6 3.9,0.8 7.5,8 8.7,10.2 z"/>
  <path class="stag-detail" d="m 188.4,249.6 c 1.9,1 3.8,1.2 5.9,2.3 1.8,1 3.6,2.6 4.6,4.5 0.4,0.9 0.7,2.2 0.8,3.2 0.1,1.1 0.1,2 0.1,2 h -0.6 c 0,0 0,-0.8 -0.2,-1.9 -0.1,-1.1 -0.3,-2.3 -0.7,-3 -0.9,-1.8 -2.6,-3.3 -4.4,-4.2 -1.9,-1 -3.8,-1.2 -5.8,-2.3 -0.7,-0.4 -1.6,-1.2 -2.3,-1.9 -0.7,-0.7 -1.3,-1.3 -1.3,-1.3 1.1,0 2.8,2.1 3.9,2.6 z"/>
  <g id="stag-ear" class="stag-detail">
    <path d="m 91.77,107.1 c 8.15,0.5 16.03,5.4 21.93,13.5 l 0.2,0.3 -0.2,0.2 c -1.5,1.2 -3.5,1.7 -5.3,1.7 -1.7,0.1 -3.5,-0.4 -5.3,-1 -3.61,-1.4 -7.1,-3.6 -9.58,-5 2.65,0.9 8.18,3.7 9.78,4.3 1.7,0.7 3.5,1.1 5.1,1.1 1.5,0 3,-0.5 4.2,-1.4 -2.1,-3 -7.5,-8.3 -12.68,-10.7 -5.95,-2.9 -11.7,-2.8 -11.75,-2.9 1.24,-0.1 2.42,-0.1 3.6,-0.1 z"/>
    <path d="m 98.93,123.3 c 3.77,1.1 8.47,2.5 13.87,3.1 0.5,0.2 0.2,0.6 -0.4,0.8 -5.5,-0.6 -9.7,-1.8 -13.7,-3.3 z M 110.5,111 c 2.8,2.4 5.6,5.3 8.6,8.9 0.1,0.8 -0.3,1 -0.8,0.7 -2.8,-3.6 -5.5,-6.7 -8.2,-9.1 z"/>
  </g>
  <g id="stag-eye">
    <path style="fill:#ffffff;" d="m 147.8,117.5 c -0.5,0.2 -1.1,0.3 -1.4,0.7 -0.4,0.4 -0.6,0.9 -0.6,1.5 0.1,1.1 0.8,2 2,3 1.2,1.1 2.8,1.8 4.6,1.8 1.8,-0.1 3.4,-1 4.5,-2.1 1.1,-1.1 1.8,-2.5 1.8,-3.6 0,-0.6 -0.3,-1.1 -0.7,-1.4 -0.4,-0.3 -0.9,-0.5 -1.5,-0.6 -1.2,-0.2 -2.8,0.3 -4.5,0.4 -1.7,0 -3,0 -4.2,0.3 z"/>
    <g style="stroke:none;">
      <path style="fill:#333333;" d="m 156.7,119.9 c 0.3,1.7 -0.9,3.3 -2.6,3.6 -1.7,0.2 -3.3,-1 -3.6,-2.7 -0.3,-1.8 0.9,-3.4 2.6,-3.6 1.8,-0.3 3.4,0.9 3.6,2.7 z"/>
      <path style="fill:#000000;" d="m 153.4,118.8 c -0.9,0.1 -1.6,0.8 -1.4,1.7 0.1,0.9 1,1.4 1.8,1.3 0.9,-0.1 1.5,-0.8 1.4,-1.7 -0.1,-1 -1,-1.5 -1.8,-1.3 z"/>
      <path style="fill:#ffffff;" d="m 152.7,118.2 c 0.5,0.2 0.8,0.8 0.6,1.4 -0.2,0.6 -0.8,0.8 -1.3,0.6 -0.5,-0.2 -0.8,-0.8 -0.6,-1.4 0.2,-0.6 0.8,-0.8 1.3,-0.6 z"/>
    </g>
  </g>
  <g id="stag-nose" style="stroke:none;">
    <path style="fill:#333333;" d="m 194.3,139.2 c -4.4,0.9 -11,-4.4 -5.4,-9.3 0,0 2.6,0.9 3.7,1.7 0.8,0.5 1.8,1.1 2.1,2 0.7,1.7 -0.4,5.6 -0.4,5.6 z"/>
    <path d="m 193,138 c 0,0 -0.7,-2.5 -1.6,-3.1 -0.6,-0.3 -1.4,-1 -2,-0.6 -0.4,0.3 -0.4,1.2 -0.1,1.5 0.9,1.3 3.7,2.2 3.7,2.2 z"/>
  </g>
  <g id="crown" style="fill:#ffdd00;stroke:#555500;">
    <path d="M 132.6,226.4 107.9,213 c 1.4,-2.4 3.4,-4.7 5.9,-7 1.5,3.9 2.8,7.7 5.2,9.8 0.9,-3.5 -0.3,-6.3 -1.5,-9.2 l 10.1,6.9 c -1.8,1 -1.2,0 -5.9,2.6 1.5,0.6 3.8,1 5.8,0.5 0,0 0.1,0 0.1,0 0.6,-0.2 1.3,-0.4 1.8,-0.8 1.5,-1 2.2,-2.3 2.4,-3.7 0.2,-1.1 0.2,-2.3 -0.6,-3.1 -0.4,-0.5 -0.8,-0.9 -1.1,-1.5 -0.3,-0.2 -1,-0.3 -1.3,-0.1 -0.3,0.2 0,0.8 0.1,1.1 0.4,0.7 1.2,1 1.5,1.7 0.3,0.7 0.4,1.5 0.2,2.3 -0.3,0.7 -1.3,1.6 -1.3,1.6 l -0.8,-1.6 c -0.5,-1.1 -2.1,-1.1 -3,-1.9 -0.7,-0.5 -1.3,-1.1 -1.6,-1.8 -0.3,-0.9 -0.3,-1.9 0.1,-2.7 0.1,-0.2 0.4,-0.5 0.6,-0.7 0.4,-0.3 1.3,-0.6 1.3,-0.6 0,0 -1,-0.8 -1.4,-1.4 -0.5,-0.8 -1,-2.6 -1.2,-3.5 -0.3,-1.4 -0.2,-3.1 -0.2,-3.3 0.2,0 1.9,0.1 3.3,0.6 0.9,0.3 2,0.8 2.7,1.4 0.6,0.5 1.5,1.7 1.5,1.7 0,0 0.7,-1.2 1,-1.5 0.2,-0.3 0.5,-0.5 0.8,-0.6 0.8,-0.3 1.8,-0.2 2.6,0.2 0.7,0.4 1.3,1.1 1.7,1.8 0.7,1 0.7,2.3 1.8,2.9 l 1.5,1 c 0,0 -1,0.9 -1.7,1 -0.8,0.2 -1.5,0 -2.3,-0.4 -0.6,-0.4 -1,-1.1 -1.8,-1.3 -0.3,0 -0.7,-0.1 -0.9,0.1 -0.3,0.3 -0.1,1 0.1,1.3 l 1,1.3 c 0.3,0.4 0.9,0.7 1.3,0.8 1.2,0.3 2.3,0.1 3.5,-0.2 1.2,-0.4 2.2,-1 3.2,-1.8 0.8,-0.7 2.2,-2 2.7,-3 0.7,-1.1 0.9,-2 1.1,-3.4 0.1,-0.7 -0.1,-1.5 -0.4,-2.2 -0.3,-0.8 -1.3,-1.9 -1.3,-1.9 -0.6,1.2 -1,2.4 -1.3,3.6 -0.4,1.4 -0.5,2.8 -0.5,4.1 l -9.2,-10.7 c 2,0.3 3.5,0.7 5.3,0.6 1.4,0 2.1,-0.1 3.2,-0.6 -1,-0.6 -1.5,-1.1 -2.9,-1.4 -1.8,-0.5 -3.8,-1.1 -5.9,-1.4 1.7,-1.9 3.6,-3.7 5.5,-5.3 2,-1.7 4,-3.2 6.2,-4.5 0,2.1 0.2,4.1 0.4,6 0.1,1.5 0.4,2 0.9,3.1 0.6,-1 0.9,-1.6 1.1,-3.1 0.3,-1.6 0.2,-3.2 0.3,-5.2 l 9,10.9 c -1.3,-0.2 -2.7,-0.3 -4.1,-0.2 -1.3,0 -2.5,0.2 -3.8,0.7 0,0 0.8,1.1 1.6,1.6 0.6,0.4 1.4,0.7 2.1,0.8 1.4,0 2.3,0 3.5,-0.6 1,-0.3 2.6,-1.4 3.4,-2.1 1,-0.9 1.7,-1.7 2.3,-2.9 0.6,-1 0.9,-2.1 0.8,-3.3 -0.1,-0.5 -0.2,-1 -0.6,-1.4 l -1.1,-1.2 c -0.3,-0.3 -0.9,-0.7 -1.2,-0.4 -0.3,0.2 -0.3,0.6 -0.3,0.9 0.1,0.8 0.8,1.3 1,2.1 0.3,0.7 0.3,1.5 0,2.3 -0.3,0.6 -1.4,1.5 -1.4,1.5 l -0.6,-1.6 c -0.5,-1.2 -1.7,-1.5 -2.6,-2.3 -0.7,-0.5 -1.3,-1.2 -1.4,-2 -0.3,-0.8 -0.3,-1.8 0.2,-2.6 0.2,-0.2 0.4,-0.5 0.7,-0.6 0.4,-0.3 1.7,-0.7 1.7,-0.7 0,0 -1.1,-1.2 -1.4,-1.8 -0.5,-0.8 -0.8,-2 -0.9,-2.9 -0.2,-1.5 0,-3.1 0,-3.3 0.2,0 1.9,0.2 3.3,0.7 0.8,0.4 2.5,1.1 3.1,1.8 0.5,0.5 1.1,1.7 1.1,1.7 0,0 0.5,-0.8 0.9,-1.2 0.2,-0.2 0.5,-0.4 0.8,-0.5 0.9,-0.2 1.9,0 2.6,0.4 0.8,0.4 1.2,1.1 1.6,1.9 0.6,1.1 0.3,2.6 1.3,3.3 l 1.5,1 c 0,0 -1.2,0.9 -1.8,0.9 -0.8,0.1 -1.6,-0.1 -2.3,-0.6 -0.6,-0.4 -0.8,-1.2 -1.5,-1.6 -0.2,-0.3 -0.7,-0.7 -1,-0.4 -0.3,0.3 -0.4,1 -0.1,1.3 0.4,0.5 0.8,1 1.2,1.4 0.7,0.9 1.9,1.1 2.9,1.1 1.5,0 2.9,-0.4 4.2,-1.7 1.9,-1.9 2.2,-5.3 1.7,-7.5 -3.5,4.1 -2.3,3.8 -3.7,5.3 l -4.9,-11.1 c 2.6,1.6 5.1,3.2 8.8,3.1 -1.7,-2.7 -5.2,-4.8 -8.8,-6.9 2.7,-2 5.4,-3.6 8,-4.6 l 8.9,26.7 c -20.2,10 -35.2,24.5 -49.7,41.4 z"/>
    <path d="m 166.1,181.2 -0.1,-1.4 -1.3,-0.4 -4,3 0.2,1.2 1.2,0.5 z"/>
    <path d="m 130.7,209.8 -0.2,-1.3 3.6,-3.4 1.3,0.4 0.2,1.2 -3.6,3.4 z"/>
  </g>
</g>
<use id="shine" xlink:href="#shield" fill="url(#rg)" stroke="#000" stroke-width="3"/>
</svg>
