<?xml version="1.0" encoding="UTF-8"?>
<svg xmlns="http://www.w3.org/2000/svg" xmlns:xlink="http://www.w3.org/1999/xlink" width="600" height="660">
<defs>
  <radialGradient id="rg" gradientUnits="userSpaceOnUse" cx="220" cy="220" r="405">
    <stop style="stop-color:#ffffff;stop-opacity:.3" offset="0"/>
    <stop style="stop-color:#ffffff;stop-opacity:.2" offset=".2"/>
    <stop style="stop-color:#666666;stop-opacity:.1" offset=".6"/>
    <stop style="stop-color:#000000;stop-opacity:.13" offset="1"/>
  </radialGradient>
  <path id="shield" d="m2,2v257c0,286 298,398 298,398c0,0 298-112 298-398V2z"/>
</defs>
<use id="bg" xlink:href="#shield" style="fill:#080808;"/>
<g id="kraken" style="fill:#ffcc00;stroke:#4c3d00;stroke-width:1;stroke-linecap:round;stroke-linejoin:round;">
  <g id="long-tentacle">
    <path d="m 292.1198,289.1611 c -4.50741,-6.15434 -7.48773,-13.79634 -13.5222,-18.46299 -7.39434,-5.71828 -16.13681,-11.65025 -25.48413,-11.70189 -8.14279,-0.045 -17.3105,4.51014 -21.58348,11.44185 -4.65044,7.54404 -3.84517,17.8965 -1.82028,26.52428 4.08968,17.42562 15.75928,32.48256 19.76318,49.92809 3.3774,14.71576 4.38351,28.10269 0.42543,42.67301 -2.52314,9.28806 -9.56298,19.49172 -18.36833,23.37765 -10.84201,4.78474 -25.79635,4.86881 -37.02061,1.06631 -11.97894,-4.05815 -20.34541,-12.14404 -25.77031,-23.56918 -6.7836,-14.28665 -6.98062,-31.44877 -6.34872,-47.25147 0.51338,-12.83828 5.36346,-38.1042 11.72037,-54.36728 7.59062,-19.41921 13.76731,-31.42079 19.97323,-49.32641 4.40644,-12.71366 8.54757,-25.81329 8.80987,-39.26635 0.35488,-18.20053 1.19291,-36.47517 -7.38779,-63.64576 -7.08687,-22.44038 -15.95058,-34.94844 -32.28627,-41.778138 -12.00253,-5.018092 -24.38582,-1.937136 -30.35503,6.509368 -10.05514,14.22816 -8.88288,13.77813 -14.56588,30.24782 -4.33199,12.5544 -13.97671,29.01378 -21.376703,36.65045 -10.082324,10.40482 -28.104866,18.8811 -42.447821,16.83336 -12.476809,-1.78129 -23.189893,-12.52312 -29.826112,-23.2378 -6.43819,-10.39494 -8.888513,-23.96882 -6.881967,-36.03025 1.961985,-11.79358 8.902106,-23.28669 18.033758,-31.003604 27.264634,-23.040635 8.433249,-22.855588 27.152701,-27.278667 26.168134,-6.183101 43.120934,-11.766476 67.095534,-21.720563 1.83956,4.583385 -1.52485,12.189991 -6.24699,16.573368 -14.44465,13.408441 -31.419101,25.79989 -49.843003,32.799533 -9.168408,3.483264 -10.161941,-4.584604 -15.328955,-3.375222 -7.794073,1.824277 -13.396005,6.698753 -18.090081,13.182655 -6.1924,8.55354 -11.159681,19.99931 -10.88151,30.55541 0.273184,10.36623 4.076298,17.51147 8.225205,23.02714 6.064014,8.06171 10.58897,13.40154 20.518376,15.18212 9.58092,1.71811 26.079872,-8.49744 32.078321,-16.16324 18.642637,-23.82451 15.757227,-46.96198 37.219007,-68.282106 9.70008,-9.636024 27.43616,-11.903026 43.3713,-3.644262 22.90218,11.869594 35.5901,36.119818 40.13316,57.098638 4.30175,19.86426 6.39025,45.92776 3.60265,66.06041 -4.41373,31.87695 -20.67336,61.51789 -28.43381,85.72688 -5.12762,15.99576 -9.312,32.50511 -10.56708,49.25566 -1.03873,13.86305 0.11403,28.43909 5.27701,41.34669 2.76198,6.90496 9.92514,11.98936 16.90273,14.56235 7.72996,2.85042 17.07277,3.88524 24.70399,0.78014 6.39493,-2.60207 11.31957,-9.42672 13.00212,-16.12261 2.80964,-11.18125 2.62176,-23.42273 -0.26006,-34.5856 -4.79681,-18.58075 -17.84926,-34.39719 -22.3636,-53.04857 -2.2523,-9.30552 -2.00809,-24.72926 2.78429,-33.0177 6.54356,-11.31712 15.18304,-18.65172 28.02144,-21.11566 16.18781,-3.10675 32.99125,6.89238 49.02717,10.70633"/>
    <path d="m 77.955961,92.623158 c 1.004725,0.673786 1.798313,1.947739 1.449806,3.178561 -0.300957,1.063174 -1.452457,1.593236 -2.47858,1.862675 -1.128483,0.296118 -2.178318,0.901423 -3.330113,1.086028 -0.807537,0.129392 -1.503396,-0.483063 -1.933012,-1.12775 -0.344404,-0.51687 -0.782353,-1.152364 -0.480996,-1.76972 0.41148,-0.84297 1.405622,-1.037695 2.154984,-1.454919 0.988588,-0.550724 1.910689,-1.28721 2.697607,-1.544003 0.787634,-0.257173 1.408715,-0.57412 1.920262,-0.230936 0,2.1e-5 2.1e-5,4.3e-5 4.2e-5,6.4e-5 z m 9.75932,-4.715052 c 1.06096,0.580767 1.962238,1.77965 1.726498,3.03433 -0.203452,1.083184 -1.298123,1.71062 -2.290542,2.069626 -1.091744,0.394732 -2.074922,1.090336 -3.197521,1.379596 -0.786727,0.202615 -1.534573,-0.338619 -2.02205,-0.93624 -0.390734,-0.479083 -0.886164,-1.066688 -0.646897,-1.707315 0.327088,-0.875666 1.29472,-1.163788 2.000029,-1.649098 0.930196,-0.640333 1.779733,-1.458475 2.53955,-1.786384 0.760403,-0.32833 1.350963,-0.700212 1.890893,-0.404558 0,2.1e-5 2e-5,4.3e-5 4e-5,4.3e-5 z m 9.345521,-5.529766 c 1.106556,0.496671 2.098723,1.625175 1.963307,2.895993 -0.11677,1.096587 -1.156713,1.807509 -2.115462,2.244173 -1.054977,0.480302 -1.975325,1.253209 -3.067725,1.634096 -0.765296,0.26683 -1.556463,-0.209347 -2.093547,-0.763227 -0.430394,-0.443924 -0.975206,-0.987052 -0.791742,-1.646046 0.250985,-0.901567 1.192128,-1.271556 1.85586,-1.815209 0.875327,-0.717319 1.657847,-1.604514 2.391118,-1.993902 0.733685,-0.389809 1.295247,-0.808674 1.85813,-0.55592 2.1e-5,2.1e-5 4.1e-5,4.2e-5 6.1e-5,4.2e-5 z m 8.947258,-6.219416 c 1.14146,0.421538 2.20779,1.48427 2.16025,2.763526 -0.0411,1.103445 -1.02823,1.883904 -1.95338,2.386382 -1.01813,0.552785 -1.87945,1.390011 -2.94072,1.849525 -0.7432,0.321787 -1.56903,-0.09531 -2.14748,-0.608793 -0.46339,-0.411333 -1.04944,-0.91337 -0.91554,-1.585873 0.18326,-0.920585 1.09781,-1.360954 1.72251,-1.953251 0.82399,-0.781639 1.54508,-1.725305 2.25228,-2.166536 0.70753,-0.441631 1.24156,-0.899483 1.82202,-0.685021 2e-5,2.1e-5 4e-5,4.1e-5 6e-5,4.1e-5 z m 8.56456,-6.783982 c 1.16566,0.355366 2.28951,1.356977 2.31733,2.636927 0.024,1.103803 -0.91272,1.939787 -1.80427,2.496233 -0.98124,0.612223 -1.78735,1.500764 -2.81653,2.025903 -0.72053,0.367633 -1.57229,0.0042 -2.18387,-0.472875 -0.4897,-0.381351 -1.10884,-0.845684 -1.01829,-1.526855 0.12393,-0.932768 1.01173,-1.431963 1.59999,-2.063228 0.77617,-0.833291 1.44139,-1.820869 2.12302,-2.304285 0.68191,-0.483795 1.18994,-0.972639 1.78256,-0.791863 2e-5,2.1e-5 4e-5,2.1e-5 6e-5,4.3e-5 z m 8.1974,-7.223468 c 1.17914,0.298221 2.34385,1.243235 2.43453,2.516242 0.0783,1.097617 -0.81017,1.975091 -1.66814,2.573702 -0.94427,0.658595 -1.699,1.585472 -2.69509,2.163211 -0.69723,0.404348 -1.56627,0.08689 -2.20273,-0.355492 -0.50938,-0.353999 -1.15344,-0.783994 -1.1,-1.468932 0.0733,-0.938134 0.93387,-1.48467 1.48829,-2.14518 0.73185,-0.872278 1.34677,-1.891184 2.00337,-2.407149 0.65681,-0.516323 1.14038,-1.028122 1.73971,-0.876445 2e-5,2.2e-5 2e-5,2.2e-5 6e-5,4.3e-5 z m 5.93751,-8.611774 c 1.15888,-0.235627 2.72097,-0.0084 3.32028,1.173088 0.0878,0.172949 0.14329,0.354293 0.17107,0.540203 0,0 0,0 0,0 0,0 0,0 0,0 0.17168,0.934009 -0.29139,1.976038 -0.84809,2.791277 -0.72853,1.06652 -1.28192,2.301023 -2.22471,3.197981 -0.66276,0.63055 -1.60853,0.49036 -2.31007,0.164744 -0.5721,-0.265589 -1.25253,-0.587627 -1.31525,-1.273575 -0.0844,-0.921848 0.61106,-1.592668 0.95995,-2.357599 0.45486,-0.997909 0.66348,-2.11099 1.05751,-2.795633 0.29807,-0.518132 0.48489,-1.005735 0.81461,-1.263876 0,0 0,0 0,0 0.10541,-0.08542 0.22728,-0.146649 0.37458,-0.176526 2e-5,0 4e-5,0 6e-5,0 z"/>
  </g>
  <use xlink:href="#long-tentacle" transform="matrix(-1,0,0,1,600,0)"/>
  <g id="head">
    <path d="m 300,397.15283 c 15.4863,17.23319 43.27207,27.69125 48.33506,52.53347 -29.84538,6.91409 -21.22879,34.88329 6.46248,38.35772 -6.94888,16.95524 -4.99043,26.32675 8.07342,41.30159 -18.30103,1.84018 -22.65931,11.56271 -15.57822,26.65835 -24.51984,-3.33543 -39.86714,9.58947 -47.29274,33.77153 -7.4256,-24.18206 -22.7729,-37.10696 -47.29274,-33.77153 7.08109,-15.09564 2.72282,-24.81817 -15.57821,-26.65835 13.06385,-14.97484 15.02229,-24.34635 8.07342,-41.30159 27.69126,-3.47443 36.30785,-31.44363 6.46247,-38.35772 5.063,-24.84222 32.84876,-35.30028 48.33506,-52.53347"/>
    <path d="m 313.34106,254.83555 c 1.76259,13.31446 0.69977,33.46476 5.20085,39.52637 1.99365,-2.08033 6.63279,-7.91602 11.18183,-10.14163 7.25783,-3.55089 11.33587,-3.48196 17.16275,-2.60042 5.45562,0.82537 13.43551,6.32768 13.26215,14.04226 -4.85381,-6.18865 -12.47693,-6.10024 -18.46298,-4.9408 -5.74679,1.1131 -11.81671,9.45575 -12.48202,16.38266 -3.88667,40.46703 11.35091,75.75835 -1.56025,129.2409 -9.20441,38.12784 -19.75544,55.30228 -27.6434,106.09715 -7.88796,-50.79487 -18.43899,-67.96931 -27.6434,-106.09715 -12.91116,-53.48255 2.32642,-88.77387 -1.56025,-129.2409 -0.6653,-6.92691 -6.73523,-15.26956 -12.48201,-16.38266 -5.98605,-1.15944 -13.60917,-1.24785 -18.46299,4.9408 -0.17336,-7.71458 7.80654,-13.21689 13.26215,-14.04226 5.82688,-0.88154 9.90492,-0.95047 17.16275,2.60042 4.54904,2.22561 9.18818,8.0613 11.18184,10.14163 4.50107,-6.06161 3.43825,-26.21191 5.20084,-39.52637 2.09227,-15.80505 11.43411,-21.32347 13.34107,-32.50527 1.90697,11.1818 11.24881,16.70022 13.34107,32.50527 z"/>
  </g>
  <g id="tentacle-1">
    <path d="m 288.38728,303.39153 c 0.11382,-8.00194 -0.9559,-24.0362 -5.36896,-30.87313 -7.44601,-11.53566 -16.61343,-23.18621 -28.86466,-29.38475 -10.96311,-5.54681 -25.69036,-4.16569 -37.95308,-3.40285 -15.89837,0.98901 -29.80262,6.99674 -45.65044,8.60369 -9.11051,0.92379 -19.05391,2.26053 -27.43442,-1.43023 -6.03693,-2.65865 -9.51564,-10.23781 -9.8093,-16.96581 2.36245,4.62576 8.66413,8.80256 13.70609,9.80159 9.3153,1.84575 19.31803,0.41745 28.65848,-1.29638 14.62636,-2.68375 25.4541,-9.88596 39.99645,-12.99286 9.80386,-2.09454 20.68802,-3.11672 30.4026,-0.64088 11.16891,2.8465 36.051,8.98151 45.06279,16.16723"/>
    <path d="m 254.87295,227.95019 c -0.38184,-1.15567 -0.20388,-2.64419 0.8182,-3.40329 0.88042,-0.65393 2.09002,-0.37746 3.0514,0.021 1.05812,0.43888 2.24062,0.57143 3.26209,1.0943 0.71496,0.36595 0.91888,1.26613 0.89254,2.03907 -0.021,0.61852 -0.0328,1.39121 -0.63602,1.71709 -0.82618,0.4464 -1.7503,0.021 -2.6048,-0.088 -1.12823,-0.14286 -2.31792,-0.11004 -3.10707,-0.38507 -0.78942,-0.27486 -1.48248,-0.40811 -1.67634,-0.99517 0,-2e-5 0,-4e-5 0,-7e-5 z m -10.56724,-2.69142 c -0.41899,-1.12255 -0.36746,-2.63121 0.65431,-3.4289 0.54582,-0.42621 1.25653,-0.4925 1.96579,-0.37771 0.40361,0.0652 0.80388,0.19209 1.16873,0.33674 1.05436,0.41798 2.22791,0.52153 3.25258,1.01396 0.71646,0.34433 0.94476,1.23641 0.9418,2.00941 -0.002,0.61786 0.0105,1.39166 -0.58181,1.73556 -0.81296,0.4719 -1.75168,0.0707 -2.61013,-0.019 -1.13442,-0.11698 -2.32733,-0.0644 -3.12395,-0.32892 -0.0804,-0.0267 -0.1599,-0.052 -0.23796,-0.0766 0,0 0,0 0,0 -0.67271,-0.2148 -1.23648,-0.34852 -1.42934,-0.86544 0,-3e-5 0,-5e-5 -2e-5,-7e-5 z m -10.64827,-1.08878 c -0.65017,-1.01256 -0.89873,-2.50278 -0.0762,-3.49391 0.71245,-0.85869 2.01553,-0.87197 3.09017,-0.68378 1.17976,0.20682 2.42112,0.12055 3.56437,0.47481 0.80432,0.24918 1.1518,1.11119 1.2389,1.87589 0.0703,0.61616 0.16285,1.37138 -0.38463,1.78011 -0.74371,0.55527 -1.69945,0.28812 -2.54649,0.33887 -1.11384,0.0669 -2.24176,0.35198 -3.05357,0.26595 -0.81335,-0.0861 -1.5006,-0.0409 -1.83252,-0.55788 0,0 -2e-5,-6e-5 -2e-5,-6e-5 z m -10.8091,0.83752 c -0.80226,-0.91468 -1.25251,-2.3607 -0.5911,-3.46925 0.57192,-0.95874 1.84088,-1.17297 2.92047,-1.16043 1.18588,0.0147 2.38113,-0.28429 3.55802,-0.13907 0.82632,0.10204 1.32731,0.88909 1.55805,1.62837 0.18558,0.59451 0.42354,1.32494 -0.0395,1.83257 -0.63163,0.69245 -1.63386,0.60465 -2.46999,0.80493 -1.10017,0.26378 -2.1847,0.73442 -3.01327,0.77772 -0.82968,0.0436 -1.51379,0.19146 -1.92262,-0.27482 -2e-5,-2e-5 -2e-5,-4e-5 -4e-5,-7e-5 z m -10.6442,2.1539 c -0.89795,-0.80516 -1.52161,-2.17551 -0.99795,-3.34843 0.453,-1.01485 1.69063,-1.38006 2.76969,-1.49498 0.33094,-0.0351 0.65941,-0.0942 0.98789,-0.16096 0,0 0,0 0,0 0.82296,-0.16853 1.64689,-0.39509 2.48786,-0.39647 0.81823,-0.001 1.41087,0.71464 1.73475,1.42055 0.25964,0.56594 0.59328,1.26403 0.19778,1.82781 -0.54014,0.76995 -1.55536,0.80603 -2.36353,1.09934 -0.37893,0.13761 -0.75301,0.29887 -1.11535,0.45557 -0.64993,0.28313 -1.25727,0.55785 -1.77806,0.6454 -0.81096,0.13655 -1.46491,0.363 -1.92302,-0.0479 0,0 -2e-5,-2e-5 -4e-5,-5e-5 z m -10.30082,3.43732 c -0.98251,-0.71947 -1.71106,-2.03628 -1.31576,-3.25151 0.34069,-1.04768 1.49988,-1.52597 2.53004,-1.75544 1.13262,-0.25211 2.19805,-0.82085 3.35469,-0.9671 0.81124,-0.10246 1.48787,0.53025 1.89636,1.18588 0.32774,0.52609 0.74382,1.1721 0.42473,1.77818 -0.43596,0.82812 -1.43108,0.99283 -2.1938,1.38844 -1.00496,0.52149 -1.95477,1.23128 -2.75542,1.46204 -0.80104,0.23105 -1.44133,0.52544 -1.9408,0.15949 -2e-5,0 -4e-5,-2e-5 -4e-5,-4e-5 z m -10.23513,3.96007 c -0.99011,-0.72041 -1.69126,-2.04108 -1.31291,-3.25037 0.32507,-1.03927 1.44004,-1.51905 2.43548,-1.76534 1.09567,-0.27091 2.1074,-0.87261 3.22866,-1.07195 0.78428,-0.13949 1.49345,0.45249 1.94434,1.08331 0.36037,0.50426 0.82439,1.12617 0.54394,1.75337 -0.38488,0.86068 -1.38374,1.08472 -2.13575,1.51534 -0.99538,0.57027 -1.93581,1.30783 -2.74629,1.55556 -0.80693,0.2468 -1.45557,0.5454 -1.95742,0.1801 -2e-5,-2e-5 -2e-5,-4e-5 -5e-5,-6e-5 z m -10.44591,3.47352 c -0.92029,-0.80924 -1.46279,-2.18871 -0.98941,-3.34505 0.40507,-0.98972 1.51213,-1.35914 2.48603,-1.52466 1.07376,-0.18242 2.07855,-0.71482 3.17206,-0.85917 0.76262,-0.1006 1.44109,0.51135 1.87012,1.15391 0.34155,0.51162 0.79012,1.14725 0.49152,1.76276 -0.41144,0.84813 -1.42555,1.03458 -2.19994,1.4246 -1.03145,0.51975 -2.01804,1.18759 -2.85749,1.37383 -0.82831,0.18389 -1.50799,0.42274 -1.97285,0.0147 0,-2e-5 -2e-5,-2e-5 -4e-5,-4e-5 z m -10.819,2.18135 c -0.82843,-0.90983 -1.24316,-2.35244 -0.62863,-3.46233 0.52756,-0.95305 1.71079,-1.19406 2.72847,-1.23402 0.86005,-0.0337 1.70771,-0.26956 2.56373,-0.3662 0.24654,-0.0271 0.49386,-0.0431 0.74351,-0.0389 0.74585,0.0126 1.33127,0.70754 1.67374,1.39772 0.27188,0.54796 0.64039,1.23549 0.26748,1.80639 -0.42331,0.64809 -1.20042,0.80026 -1.92331,0.98451 -0.15591,0.04 -0.30949,0.082 -0.45649,0.13213 -1.08588,0.37017 -2.15675,0.91187 -3.00489,0.99536 -0.84369,0.0831 -1.54414,0.24617 -1.96359,-0.21465 0,-2e-5 -2e-5,-4e-5 -2e-5,-6e-5 z m -11.00834,1.18577 c -0.72243,-0.99492 -0.94449,-2.46054 -0.22982,-3.48825 0.61178,-0.87991 1.7694,-1.00272 2.75567,-0.95514 1.08702,0.0526 2.18222,-0.25476 3.28168,-0.16391 0.76624,0.0634 1.30272,0.80824 1.58912,1.53012 0.22786,0.57443 0.53607,1.29412 0.1132,1.83631 -0.58343,0.74788 -1.62167,0.71622 -2.46687,0.93333 -1.12749,0.28988 -2.23948,0.72995 -3.10601,0.72845 -0.85338,-0.001 -1.57205,0.0818 -1.9369,-0.42085 0,-2e-5 0,-4e-5 -2e-5,-6e-5 z m -11.03627,-0.563 c -0.51141,-1.12237 -0.40697,-2.59875 0.48372,-3.45667 0.75862,-0.73081 1.8751,-0.62327 2.7978,-0.39987 1.01959,0.24703 2.10668,0.12624 3.13945,0.3794 0.71755,0.17588 1.13003,0.97945 1.30866,1.72736 0.1416,0.59304 0.34689,1.34524 -0.14349,1.81685 -0.67959,0.6534 -1.70165,0.46718 -2.56769,0.54389 -1.15886,0.10288 -2.33045,0.33769 -3.19021,0.17484 -0.84192,-0.15927 -1.57087,-0.22092 -1.82812,-0.78574 0,-2e-5 0,-4e-5 0,-6e-5 z m -10.48576,-4.27307 c 0.064,-1.26867 0.91436,-2.46947 2.07314,-2.85303 0.98256,-0.3253 1.84677,0.18136 2.53627,0.71372 0.76102,0.5879 1.73917,0.82492 2.55504,1.36625 0.5587,0.37071 0.70251,1.26498 0.66387,2.03797 -0.0305,0.60822 -0.0299,1.40989 -0.63591,1.72955 -0.85751,0.45222 -1.8187,-0.056 -2.69146,-0.2921 -1.18167,-0.31951 -2.38963,-0.57883 -3.15205,-1.12672 -0.73203,-0.52585 -1.38101,-0.94202 -1.34892,-1.57557 0,-3e-5 2e-5,-5e-5 2e-5,-7e-5 z"/>
  </g>
  <use xlink:href="#tentacle-1" transform="matrix(-1,0,0,1,600,0)"/>
  <g id="tentacle-2">
    <path d="m 278.32807,252.71703 c -4.96469,-8.55029 -10.49806,-13.27995 -16.73285,-18.11192 -9.90397,-7.67557 -22.71811,-14.66074 -34.2012,-19.67488 -10.58217,-4.62075 -23.88352,-11.52033 -35.1206,-20.04266 -9.05408,-6.86669 -17.82414,-17.15496 -23.44437,-23.81214 -5.34012,-6.32537 -10.99945,-15.65109 -11.95208,-21.78946 -0.82605,-5.32284 -2.70097,-11.68042 0.82747,-23.35245 1.33141,10.44731 1.69371,13.72589 6.85733,23.41012 4.9719,9.32469 11.3289,16.09166 18.88551,23.47864 12.83828,12.55012 21.11418,17.8678 33.46571,24.63956 10.23312,5.61035 22.36628,10.97265 34.56898,15.81349 7.79054,3.09053 32.23986,16.97802 42.4757,33.4657"/>
    <path d="m 266.08496,222.09161 c 0.006,-1.21627 0.63791,-2.58429 1.85951,-2.9757 1.05459,-0.33798 2.12831,0.32764 2.91418,1.02583 0.86516,0.76887 1.94008,1.29032 2.72843,2.12347 0.55123,0.58255 0.44439,1.4994 0.16495,2.21889 -0.22369,0.57595 -0.48878,1.30081 -1.16439,1.40948 -0.92714,0.14918 -1.6584,-0.55812 -2.43005,-0.94242 -1.01844,-0.50696 -2.15265,-0.8649 -2.80842,-1.37991 -0.65635,-0.51527 -1.26785,-0.86085 -1.26428,-1.47958 0,-2e-5 3e-5,-4e-5 3e-5,-6e-5 z m -9.35554,-5.51065 c -0.12414,-1.20083 0.3339,-2.63574 1.51174,-3.15336 1.01933,-0.44807 2.17895,0.11256 3.0458,0.74184 0.95339,0.69232 2.09029,1.1313 2.95931,1.91335 0.609,0.54807 0.56877,1.47507 0.33718,2.21414 -0.18578,0.59272 -0.40481,1.33283 -1.07438,1.48636 -0.91474,0.20977 -1.69098,-0.44154 -2.48672,-0.76094 -1.04987,-0.42111 -2.20094,-0.66876 -2.89629,-1.11214 -0.69641,-0.4439 -1.33344,-0.71681 -1.39664,-1.32918 0,-2e-5 0,-4e-5 0,-7e-5 z m -9.97946,-4.29641 c -0.23483,-1.19823 0.14202,-2.6462 1.24481,-3.27269 0.94814,-0.53873 2.09634,-0.12414 2.98944,0.37508 0.55084,0.30804 1.15155,0.52207 1.73956,0.75809 0,0 0,0 0,0 0.49078,0.19798 0.97041,0.41587 1.40523,0.70766 0.69322,0.46522 0.78155,1.39127 0.65106,2.15246 -0.10499,0.61223 -0.22542,1.36899 -0.86717,1.60965 -0.87432,0.32784 -1.72391,-0.20388 -2.55464,-0.39987 -0.076,-0.019 -0.15233,-0.0349 -0.22879,-0.051 0,0 0,0 0,0 -1.04386,-0.22431 -2.1243,-0.33858 -2.82896,-0.68208 -0.75601,-0.36835 -1.43158,-0.58961 -1.55054,-1.19724 0,-2e-5 0,-4e-5 0,-6e-5 z m -10.1109,-4.26277 c -0.20262,-1.20482 0.21592,-2.64019 1.33347,-3.23725 0.96055,-0.51327 2.09368,-0.0711 2.97139,0.44822 0.96712,0.57247 2.10057,0.84663 3.03209,1.47777 0.65048,0.44072 0.74741,1.35436 0.63529,2.11931 -0.0896,0.61052 -0.18431,1.3807 -0.81937,1.63766 -0.87296,0.35333 -1.74825,-0.18136 -2.5858,-0.39791 -1.10918,-0.2865 -2.29704,-0.41975 -3.04683,-0.80916 -0.74733,-0.388 -1.41761,-0.62783 -1.52024,-1.23858 0,-2e-5 0,-4e-5 0,-6e-5 z m -9.97105,-4.5906 c -0.15758,-1.21168 0.31697,-2.62793 1.45391,-3.18296 0.97679,-0.47696 2.08846,0.004 2.9439,0.55189 0.94275,0.604 2.06249,0.91386 2.97013,1.57235 0.63357,0.45968 0.70166,1.37486 0.56616,2.13573 -0.10814,0.60701 -0.22621,1.37419 -0.86843,1.61151 -0.88338,0.32643 -1.74213,-0.236 -2.57219,-0.48012 -1.10007,-0.32328 -2.28212,-0.49776 -3.01877,-0.91451 -0.73349,-0.41476 -1.39494,-0.6798 -1.47471,-1.29381 0,-2e-5 0,-4e-5 0,-8e-5 z m -9.77011,-5.01639 c -0.0281,-0.34472 -0.004,-0.70375 0.0698,-1.05276 0,0 0,0 0,0 0.13528,-0.63242 0.4386,-1.23007 0.90489,-1.65049 0,0 0,0 0,0 0.18494,-0.16642 0.3954,-0.30492 0.63142,-0.40666 0.9969,-0.42981 2.0807,0.10141 2.90699,0.68614 0.91078,0.64474 2.01206,1.00175 2.88758,1.69633 0.61095,0.48467 0.64051,1.40095 0.47386,2.15521 -0.13298,0.60151 -0.28205,1.3634 -0.9331,1.574 -0.89609,0.28986 -1.7311,-0.30844 -2.55011,-0.58853 -1.08598,-0.37112 -2.25927,-0.599 -2.97741,-1.0502 -0.71442,-0.44869 -1.36358,-0.74558 -1.41393,-1.36298 0,-2e-5 0,-4e-5 0,-6e-5 z m -9.47361,-5.58418 c -0.019,-1.22314 0.62197,-2.56981 1.81076,-2.99241 1.0204,-0.36283 2.06098,0.23371 2.84375,0.86565 0.86305,0.69696 1.93496,1.1157 2.7638,1.85555 0.57798,0.51593 0.55553,1.43117 0.34753,2.17511 -0.1658,0.5928 -0.35605,1.34658 -1.01763,1.52104 -0.91146,0.24039 -1.71317,-0.40584 -2.51481,-0.73463 -1.06438,-0.43631 -2.2209,-0.73763 -2.9107,-1.2359 -0.68503,-0.49464 -1.31372,-0.8351 -1.3227,-1.45434 0,-3e-5 0,-5e-5 0,-7e-5 z m -9.06129,-6.22112 c 0.0677,-1.22087 0.80078,-2.51815 2.01521,-2.85629 1.0423,-0.29029 2.03707,0.37668 2.77278,1.06069 0.81118,0.75439 1.85003,1.24551 2.62474,2.03964 0.54018,0.55375 0.45491,1.46447 0.19652,2.19183 -0.20577,0.57953 -0.44712,1.31803 -1.11859,1.44663 -0.92518,0.17716 -1.68016,-0.52225 -2.45672,-0.90546 -1.03122,-0.50854 -2.16338,-0.88932 -2.81665,-1.43436 -0.64865,-0.54098 -1.2518,-0.92457 -1.21739,-1.54261 0,-2e-5 0,-4e-5 3e-5,-7e-5 z m -8.59333,-6.85194 c 0.15633,-1.21309 0.98264,-2.45342 2.21821,-2.70246 1.0603,-0.2138 2.00305,0.5232 2.6866,1.25802 0.7537,0.81048 1.75354,1.37429 2.46865,2.22102 0.49857,0.59035 0.34866,1.49225 0.0393,2.19911 -0.2464,0.56316 -0.53932,1.28249 -1.21793,1.36306 -0.93519,0.11109 -1.63838,-0.64029 -2.38552,-1.07805 -0.99218,-0.58102 -2.09414,-1.04241 -2.70663,-1.63344 -0.60808,-0.58655 -1.18209,-1.01318 -1.10286,-1.62719 2e-5,-3e-5 2e-5,-5e-5 2e-5,-7e-5 z m -8.07098,-7.4708 c 0.24257,-1.19928 1.15234,-2.38825 2.40839,-2.54573 0.66375,-0.0833 1.25649,0.19335 1.76154,0.60433 0.3138,0.25355 0.59433,0.55954 0.83591,0.86211 0.69064,0.86524 1.64553,1.50208 2.2955,2.39964 0.45312,0.62574 0.23678,1.51455 -0.12393,2.197 -0.28734,0.54373 -0.63259,1.23998 -1.31559,1.27036 -0.9415,0.0419 -1.58781,-0.75994 -2.30119,-1.25247 -0.94727,-0.65369 -2.01322,-1.19687 -2.58067,-1.83312 -0.0601,-0.0675 -0.12014,-0.13318 -0.17905,-0.19714 0,0 0,0 0,0 -0.49036,-0.53326 -0.91086,-0.96214 -0.80099,-1.50485 0,0 2e-5,-7e-5 2e-5,-7e-5 z m -7.58759,-8.00157 c 0.32724,-1.18329 1.32641,-2.28995 2.58509,-2.36529 1.07962,-0.0648 1.9086,0.79019 2.48552,1.6121 0.63568,0.9059 1.55322,1.60216 2.14937,2.54343 0.41584,0.6566 0.14307,1.53378 -0.26174,2.19414 -0.32271,0.52634 -0.71313,1.20055 -1.39906,1.18719 -0.94501,-0.019 -1.54079,-0.86107 -2.22418,-1.39898 -0.90834,-0.71467 -1.93886,-1.32369 -2.467,-1.99887 -0.52322,-0.6686 -1.03371,-1.17499 -0.86804,-1.77368 2e-5,-2e-5 2e-5,-2e-5 4e-5,-4e-5 z m -6.76487,-8.70902 c 0.46925,-1.13279 1.60093,-2.08902 2.84751,-2.01496 1.06671,0.0634 1.77136,0.98793 2.24108,1.84942 0.51803,0.9505 1.34492,1.71704 1.83852,2.69157 0.34375,0.67869 -0.006,1.52027 -0.46679,2.13996 -0.36624,0.49274 -0.81348,1.13101 -1.49303,1.05708 -0.93815,-0.10205 -1.45428,-0.99888 -2.07871,-1.60216 -0.83283,-0.80426 -1.78668,-1.52088 -2.23647,-2.25652 -0.44352,-0.72511 -0.88921,-1.29232 -0.65216,-1.86432 2e-5,-2e-5 2e-5,-5e-5 5e-5,-7e-5 z m -5.4543,-9.60705 c 0.6316,-1.0576 1.89608,-1.84224 3.12434,-1.58784 1.05213,0.21784 1.6196,1.24234 1.96035,2.18578 0.14811,0.41049 0.34819,0.8026 0.55553,1.19278 0.30513,0.57446 0.63243,1.13467 0.83262,1.75274 0.23024,0.71084 -0.23821,1.48856 -0.78101,2.03475 -0.431,0.43367 -0.96306,1.00347 -1.62334,0.83432 -0.9149,-0.23439 -1.29609,-1.20017 -1.82362,-1.89557 -0.16453,-0.21694 -0.33782,-0.43216 -0.50964,-0.64409 0,0 0,0 0,0 -0.55445,-0.68107 -1.1058,-1.32408 -1.36137,-1.92666 -0.33246,-0.78347 -0.69323,-1.41167 -0.3739,-1.94617 2e-5,0 2e-5,-2e-5 4e-5,-4e-5 z m -3.63998,-10.50159 c 0.87005,-0.87507 2.28511,-1.30998 3.40917,-0.77446 0.91408,0.43542 1.22594,1.44396 1.3602,2.33214 0.006,0.0444 0.0126,0.0886 0.0169,0.13235 0.12246,1.01156 0.63286,1.95173 0.78761,2.98857 0.10731,0.71965 -0.47597,1.41014 -1.09854,1.86614 -0.4928,0.36094 -1.10917,0.84573 -1.73596,0.57557 -0.87057,-0.37519 -1.09349,-1.39869 -1.49321,-2.18026 -0.38132,-0.74516 -0.80274,-1.44059 -1.08907,-2.13478 -0.11635,-0.28441 -0.20451,-0.55661 -0.24896,-0.81027 -0.14938,-0.85116 -0.34628,-1.55474 0.0915,-1.99498 0,0 6e-5,-4e-5 6e-5,-4e-5 z"/>
  </g>
  <use xlink:href="#tentacle-2" transform="matrix(-1,0,0,1,600,0)"/>
  <g id="tentacle-3">
    <path d="m 286.60257,233.86962 c -8.4176,-9.90887 -17.60599,-22.8845 -23.56246,-34.79748 -5.79778,-11.59553 -9.71457,-22.8276 -11.55814,-35.44374 -2.2613,-15.47484 -7.1149,-34.16285 -11.76816,-45.41774 -4.45281,-10.77007 -13.44975,-20.913394 -20.4104,-25.742841 -4.60691,-3.196382 -11.70687,-5.82279 -18.38776,-5.51632 6.54138,3.176983 10.21214,6.023512 14.06661,10.021308 3.19285,3.311573 11.52825,14.443653 14.98604,23.076633 5.9309,14.80765 9.73374,29.16199 11.95204,46.33712 1.87345,14.50507 7.06752,28.36177 13.77773,41.15702 5.02241,9.57684 10.40486,19.36843 17.29755,28.53257"/>
    <path d="m 268.43635,210.40685 c 0.51578,-1.11028 1.67826,-2.04646 2.93386,-1.91009 1.07789,0.11698 1.75695,1.10853 2.18785,2.02137 0.47483,1.00631 1.25874,1.85497 1.68161,2.88764 0.29502,0.7205 -0.12729,1.53448 -0.64126,2.11154 -0.40988,0.46009 -0.91228,1.05272 -1.58356,0.9185 -0.92425,-0.18472 -1.36083,-1.11594 -1.93837,-1.76214 -0.7665,-0.85719 -1.6769,-1.63226 -2.08114,-2.38091 -0.40168,-0.74362 -0.82028,-1.32369 -0.55904,-1.88585 3e-5,-2e-5 3e-5,-4e-5 5e-5,-6e-5 z m -5.44418,-9.56756 c 0.60057,-1.06816 1.83451,-1.90487 3.07317,-1.67442 1.06238,0.19756 1.65963,1.22922 2.01964,2.16379 0.39686,1.03073 1.11633,1.92387 1.46721,2.97521 0.24465,0.73304 -0.22869,1.51636 -0.77817,2.05947 -0.43776,0.43264 -0.97672,0.99346 -1.63786,0.81708 -0.91118,-0.24307 -1.28704,-1.20275 -1.81946,-1.88744 -0.70758,-0.90953 -1.5597,-1.74827 -1.90884,-2.52789 -0.34623,-0.77285 -0.7197,-1.38534 -0.41575,-1.92574 2e-5,-2e-5 4e-5,-4e-5 6e-5,-6e-5 z m -4.65192,-9.98647 c 0.68552,-1.0166 1.98348,-1.75294 3.20117,-1.42207 1.04474,0.28381 1.55749,1.36342 1.84035,2.3261 0.31178,1.06164 0.95564,2.01213 1.21853,3.08933 0.18327,0.75092 -0.35332,1.49315 -0.94562,1.98961 -0.47188,0.3955 -1.0551,0.91063 -1.69982,0.68072 -0.88884,-0.31702 -1.18499,-1.30494 -1.65995,-2.03166 -0.63108,-0.96515 -1.4125,-1.87197 -1.69691,-2.67768 -0.28218,-0.79904 -0.60479,-1.4399 -0.2578,-1.9543 3e-5,0 3e-5,-3e-5 5e-5,-5e-5 z m -3.79925,-10.3442 c 0.7723,-0.95154 2.12923,-1.56593 3.31082,-1.13074 1.01337,0.37315 1.42833,1.48771 1.62658,2.4668 0.2185,1.07987 0.77905,2.07687 0.95146,3.16844 0.12014,0.76074 -0.47511,1.45557 -1.1061,1.90198 -0.50244,0.35542 -1.1261,0.82191 -1.74988,0.54003 -0.86022,-0.38871 -1.07401,-1.39897 -1.48604,-2.16308 -0.54805,-1.01582 -1.24792,-1.98561 -1.46144,-2.81417 -0.21166,-0.82075 -0.47624,-1.48793 -0.0855,-1.96922 2e-5,-2e-5 4e-5,-2e-5 7e-5,-4e-5 z m -2.8058,-10.65184 c 0.86319,-0.86992 2.27451,-1.34212 3.40514,-0.79326 0.96914,0.47042 1.26995,1.615 1.3709,2.60388 0.11108,1.09094 0.57236,2.13148 0.64078,3.22935 0.0477,0.76483 -0.60841,1.39976 -1.277,1.78535 -0.53214,0.30692 -1.19551,0.71385 -1.7897,0.37609 -0.81988,-0.46605 -0.93856,-1.49165 -1.27602,-2.29094 -0.44914,-1.06311 -1.05152,-2.09557 -1.18319,-2.94203 -0.13045,-0.83773 -0.3275,-1.52862 0.10899,-1.96842 2e-5,0 4e-5,-2e-5 6e-5,-2e-5 z m -1.81922,-10.82857 c 0.89906,-0.82053 2.33184,-1.27192 3.44405,-0.64564 0.9586,0.5397 1.19851,1.76406 1.22427,2.8064 0.0168,0.6538 0.13887,1.30314 0.22974,1.95252 0,0 0,0 0,0 0.0652,0.46806 0.11719,0.93542 0.0959,1.40683 -0.0341,0.76319 -0.75328,1.32568 -1.45835,1.63977 -0.56105,0.24989 -1.26333,0.58641 -1.81931,0.18872 -0.76779,-0.54906 -0.77861,-1.58288 -1.02989,-2.41516 -0.019,-0.0655 -0.04,-0.13065 -0.0608,-0.19588 0,0 0,0 0,0 -0.32643,-1.02052 -0.78544,-2.02138 -0.85113,-2.80178 -0.0703,-0.83266 -0.23157,-1.51892 0.22534,-1.93576 2e-5,-2e-5 4e-5,-2e-5 6e-5,-5e-5 z m -2.00157,-10.73813 c 0.86099,-0.86037 2.2717,-1.37944 3.4126,-0.80283 0.98376,0.49714 1.28016,1.71399 1.35246,2.75842 0.0793,1.14975 0.4857,2.27287 0.46927,3.42246 -0.0105,0.8044 -0.72948,1.38654 -1.43476,1.70576 -0.56444,0.25542 -1.26315,0.58784 -1.82316,0.19125 -0.7674,-0.54349 -0.79494,-1.5621 -1.07726,-2.37679 -0.37297,-1.07553 -0.93205,-2.12623 -1.03839,-2.95454 -0.10646,-0.82869 -0.29856,-1.50637 0.13929,-1.94365 2e-5,-2e-5 4e-5,-2e-5 6e-5,-4e-5 z m -2.53597,-10.61125 c 0.81114,-0.9048 2.18902,-1.50298 3.35936,-0.98913 1.00954,0.44315 1.3725,1.64482 1.50078,2.6862 0.14097,1.14624 0.60539,2.2497 0.64739,3.40123 0.0295,0.806 -0.65896,1.42321 -1.34774,1.77645 -0.55141,0.28276 -1.23282,0.64829 -1.81149,0.27943 -0.79248,-0.50513 -0.87022,-1.51997 -1.19314,-2.31823 -0.42657,-1.05377 -1.03906,-2.07152 -1.1891,-2.89126 -0.15023,-0.82019 -0.37866,-1.4846 0.0339,-1.94465 0,-2e-5 2e-5,-2e-5 4e-5,-4e-5 z m -3.16304,-10.41836 c 0.74958,-0.95382 2.08383,-1.64251 3.28434,-1.20462 1.0359,0.37778 1.47554,1.55659 1.66927,2.58984 0.21305,1.13715 0.7441,2.21238 0.85528,3.361 0.0779,0.80421 -0.57232,1.46071 -1.23844,1.85316 -0.53347,0.31425 -1.19139,0.71791 -1.78994,0.38386 -0.81926,-0.45724 -0.95658,-1.46334 -1.32666,-2.23904 -0.48869,-1.02379 -1.16221,-1.99878 -1.36337,-2.8054 -0.20136,-0.80712 -0.47191,-1.45366 -0.0905,-1.93878 3e-5,0 5e-5,-2e-5 7e-5,-2e-5 z m -3.88897,-10.14424 c 0.66153,-1.00898 1.92337,-1.84553 3.16762,-1.4975 0.64035,0.17904 1.09654,0.67414 1.41562,1.27065 0.2106,0.3894 0.36015,0.82073 0.46837,1.23164 0.29546,1.12252 0.90192,2.16087 1.09302,3.30179 0.13382,0.79904 -0.46961,1.49904 -1.10691,1.93585 -0.51062,0.34995 -1.13883,0.79672 -1.75844,0.50454 -0.84783,-0.3998 -1.05405,-1.3922 -1.47783,-2.13924 -0.55937,-0.98558 -1.30149,-1.90798 -1.56126,-2.69691 -0.0339,-0.10268 -0.0686,-0.20242 -0.10288,-0.29959 0,0 0,0 0,0 -0.22606,-0.64252 -0.43152,-1.16285 -0.1374,-1.61119 0,-2e-5 2e-5,-2e-5 4e-5,-4e-5 z m -5.25669,-9.44664 c 0.47172,-1.11412 1.56496,-2.16561 2.85585,-2.04611 1.1191,0.10352 1.87251,1.17578 2.32766,2.17035 0.49974,1.0924 1.27768,2.06457 1.63811,3.20406 0.25318,0.80047 -0.25812,1.58316 -0.83772,2.09799 -0.46647,0.41428 -1.03522,0.931 -1.68919,0.71714 -0.89064,-0.29127 -1.22341,-1.23931 -1.75214,-1.91377 -0.69595,-0.88732 -1.57607,-1.66484 -1.96611,-2.38948 -0.39093,-0.72599 -0.81752,-1.27116 -0.5765,-1.84014 2e-5,-2e-5 4e-5,-2e-5 4e-5,-4e-5 z m -6.87704,-8.330788 c 0.25616,-1.17883 1.13057,-2.414471 2.41994,-2.535661 1.11828,-0.1052 2.05904,0.809768 2.69098,1.704226 0.6938,0.982309 1.63813,1.797123 2.20159,2.853233 0.39589,0.74204 0.0347,1.60466 -0.44286,2.21615 -0.38435,0.49204 -0.85115,1.10322 -1.53353,1.01068 -0.92866,-0.12603 -1.42728,-0.99858 -2.06865,-1.56509 -0.84437,-0.74549 -1.84931,-1.34738 -2.36422,-1.98622 -0.5161,-0.64005 -1.03429,-1.094922 -0.90329,-1.697257 2e-5,-2e-5 2e-5,-4.1e-5 4e-5,-6.1e-5 z m -8.31743,-6.808557 c 0.004,-1.194338 0.56118,-2.618665 1.81696,-2.997322 0.51096,-0.154224 1.04184,-0.07154 1.54572,0.146648 0.54736,0.229968 1.0518,0.617189 1.4725,1.01594 0.87498,0.829608 1.96032,1.448523 2.71694,2.377819 0.53179,0.65321 0.34245,1.567189 -0.008,2.256377 -0.2832,0.554867 -0.62469,1.240899 -1.3104,1.27955 -0.93256,0.0526 -1.58577,-0.705494 -2.32183,-1.1357 -0.9687,-0.565913 -2.06773,-0.956711 -2.69624,-1.478778 -0.18915,-0.156958 -0.37582,-0.298095 -0.5439,-0.43494 0,0 0,0 0,0 -0.3841,-0.312591 -0.67175,-0.600103 -0.67049,-1.029531 0,-2.1e-5 2e-5,-4.2e-5 2e-5,-6.3e-5 z m -9.80059,-4.100599 c -0.40604,-1.121456 -0.37965,-2.648794 0.67313,-3.438154 0.92019,-0.690029 2.26976,-0.382824 3.31903,0.09384 1.14861,0.521856 2.42491,0.810399 3.45601,1.517408 0.72748,0.498838 0.79483,1.444314 0.63599,2.203776 -0.12875,0.615484 -0.28361,1.361374 -0.93827,1.578971 -0.88505,0.294182 -1.70804,-0.249956 -2.53402,-0.443797 -1.0824,-0.253786 -2.23199,-0.269418 -2.98441,-0.549545 -0.75572,-0.281201 -1.41868,-0.385433 -1.62746,-0.962351 0,-2.1e-5 0,-4.2e-5 0,-6.3e-5 z"/>
  </g>
  <use xlink:href="#tentacle-3" transform="matrix(-1,0,0,1,600,0)"/>
  <g id="tentacle-4">
    <path d="m 300,256.67041 c -5.51632,-16.3038 -12.21057,-32.29949 -15.97171,-49.09527 -6.63785,-29.64212 -3.9549,-59.1014 -2.20653,-70.79285 2.56889,-17.17846 4.51372,-37.127422 2.85008,-47.992018 -1.42419,-9.300961 -2.74057,-17.415412 -15.91845,-22.594629 4.41791,3.800442 7.79978,9.046251 8.25603,14.855996 1.78489,22.727901 -3.8092,52.722851 -5.89716,69.292981 -1.37235,10.89075 -1.70926,29.18355 -0.13929,43.07194 1.64316,14.53568 4.84209,27.7042 9.01,42.29182"/>
    <path d="m 286.82166,221.24961 c 0.78052,-0.94079 2.14178,-1.55635 3.32218,-1.10183 1.0141,0.3904 1.41804,1.531 1.59894,2.53034 0.19925,1.10136 0.73419,2.13232 0.86921,3.24549 0.0942,0.77713 -0.52941,1.44974 -1.17814,1.86788 -0.51771,0.33365 -1.15901,0.76854 -1.76924,0.4601 -0.83951,-0.42436 -1.01223,-1.43441 -1.39893,-2.20807 -0.51249,-1.02478 -1.19025,-2.0088 -1.38706,-2.8322 -0.1961,-0.81966 -0.45255,-1.48508 -0.057,-1.96167 0,-2e-5 2e-5,-2e-5 4e-5,-4e-5 z m -2.93767,-10.59379 c 0.83407,-0.89593 2.22917,-1.42553 3.38042,-0.90745 0.98819,0.44461 1.32664,1.5967 1.45396,2.59716 0.14011,1.10291 0.62337,2.15136 0.70681,3.26339 0.0583,0.77585 -0.59442,1.41955 -1.26141,1.80978 -0.53179,0.31108 -1.19258,0.71978 -1.7896,0.385 -0.82202,-0.461 -0.94977,-1.48154 -1.29934,-2.27439 -0.46409,-1.05201 -1.09002,-2.07036 -1.24285,-2.90738 -0.15191,-0.83131 -0.37041,-1.51253 0.052,-1.96607 2e-5,-2e-5 4e-5,-2e-5 7e-5,-4e-5 z m -2.2565,-10.76356 c 0.8894,-0.84003 2.31527,-1.28176 3.43129,-0.68956 0.95825,0.50838 1.22155,1.68297 1.28328,2.69001 0.0679,1.11043 0.48095,2.18753 0.49172,3.30085 0.008,0.77645 -0.68516,1.37603 -1.37576,1.72248 -0.55046,0.27609 -1.23628,0.64193 -1.81046,0.2695 -0.79085,-0.51292 -0.85216,-1.54036 -1.1491,-2.35428 -0.39423,-1.07986 -0.95209,-2.1375 -1.05,-2.98169 -0.0975,-0.83895 -0.27151,-1.53196 0.17905,-1.95729 2e-5,0 4e-5,-2e-5 6e-5,-2e-5 z m -1.59821,-10.87787 c 0.93798,-0.78572 2.38805,-1.14248 3.46715,-0.48447 0.92661,0.56492 1.11931,1.75416 1.12055,2.76384 10e-4,1.11332 0.3486,2.21411 0.29193,3.32666 -0.0396,0.77598 -0.76735,1.3326 -1.47764,1.6365 -0.56621,0.24221 -1.27285,0.56564 -1.82339,0.15906 -0.7582,-0.55989 -0.75725,-1.5889 -1.00465,-2.4192 -0.32845,-1.10144 -0.82205,-2.19082 -0.86937,-3.03915 -0.0471,-0.84327 -0.17968,-1.54542 0.29536,-1.94326 2e-5,0 4e-5,-2e-5 6e-5,-2e-5 z m -0.95818,-10.95577 c 0.9822,-0.73039 2.45119,-1.00328 3.49094,-0.2834 0.89288,0.61814 1.01638,1.81775 0.9588,2.82679 -0.0638,1.11254 0.21888,2.23284 0.097,3.34112 -0.0849,0.77303 -0.84475,1.28617 -1.57199,1.54781 -0.57973,0.20851 -1.30442,0.48979 -1.83022,0.0514 -0.72414,-0.60379 -0.66272,-1.63113 -0.86117,-2.47475 -0.26351,-1.119 -0.69302,-2.23574 -0.69097,-3.08548 0.002,-0.8448 -0.0899,-1.5536 0.40765,-1.92345 2e-5,0 4e-5,-2e-5 6e-5,-2e-5 z m -0.33161,-10.99634 c 1.02215,-0.67408 2.50477,-0.86424 3.50274,-0.0863 0.85708,0.66796 0.9127,1.8737 0.79797,2.87878 -0.12666,1.10814 0.0917,2.24373 -0.0934,3.34423 -0.12918,0.76767 -0.91738,1.23678 -1.65876,1.45643 -0.59105,0.17506 -1.33096,0.41439 -1.83103,-0.0537 -0.68863,-0.64456 -0.5685,-1.66702 -0.71864,-2.52091 -0.19945,-1.1325 -0.56501,-2.27224 -0.51484,-3.12064 0.0496,-0.84356 -0.002,-1.55654 0.51583,-1.89785 2e-5,-2e-5 4e-5,-2e-5 6e-5,-2e-5 z m 0.28156,-10.99967 c 1.0578,-0.61673 2.54878,-0.72525 3.50253,0.10667 0.81915,0.71444 0.80828,1.92207 0.63812,2.91988 -0.18767,1.10006 -0.0326,2.24678 -0.27881,3.33601 -0.17169,0.75981 -0.98525,1.18438 -1.738,1.36231 -0.60015,0.14181 -1.35247,0.3394 -1.82574,-0.15611 -0.6517,-0.68223 -0.47467,-1.69659 -0.57707,-2.55763 -0.13614,-1.14201 -0.43802,-2.30037 -0.34102,-3.14467 0.0964,-0.83954 0.0842,-1.55424 0.61992,-1.86655 2e-5,0 5e-5,0 7e-5,0 z m 0.88134,-10.96571 c 1.08916,-0.55836 2.5832,-0.58637 3.49032,0.29574 0.77913,0.75756 0.70313,1.96282 0.47923,2.95002 -0.24699,1.08834 -0.15444,2.24203 -0.45957,3.31644 -0.21292,0.74951 -1.04831,1.12905 -1.80964,1.26551 -0.60701,0.10878 -1.369,0.26485 -1.81443,-0.25575 -0.61333,-0.7168 -0.38115,-1.71982 -0.43644,-2.58497 -0.0737,-1.14748 -0.31206,-2.3201 -0.16937,-3.15754 0.1416,-0.83276 0.16811,-1.54672 0.71988,-1.82943 2e-5,-2e-5 4e-5,-2e-5 6e-5,-2e-5 z m 1.44451,-10.88387 c 1.10409,-0.51279 2.60317,-0.50755 3.47524,0.42017 0.66127,0.70335 0.63586,1.74272 0.42716,2.66165 -0.0278,0.12161 -0.0589,0.24127 -0.0917,0.35763 -0.30437,1.07297 -0.27351,2.22941 -0.63554,3.2855 -0.25258,0.73675 -1.10662,1.07073 -1.87378,1.16601 -0.61162,0.076 -1.38044,0.19062 -1.79704,-0.3528 -0.57349,-0.74824 -0.28795,-1.73671 -0.29674,-2.60286 -0.008,-0.89404 -0.11783,-1.81397 -0.0764,-2.56697 0.0105,-0.2104 0.0341,-0.40744 0.0741,-0.58704 0.18136,-0.81683 0.23392,-1.52096 0.79469,-1.78129 2e-5,0 4e-5,0 6e-5,0 z m 1.41767,-10.83086 c 1.08891,-0.5427 2.588,-0.58161 3.48544,0.32295 0.77333,0.77936 0.67122,2.01804 0.4139,3.02496 -0.28354,1.10872 -0.24525,2.2942 -0.61347,3.37547 -0.25753,0.7562 -1.11737,1.08836 -1.88544,1.17597 -0.61424,0.07 -1.38086,0.17316 -1.79183,-0.3751 -0.56362,-0.75182 -0.27634,-1.7301 -0.29199,-2.59176 -0.0211,-1.1381 -0.22244,-2.31171 -0.0627,-3.132 0.15969,-0.82051 0.19273,-1.52487 0.74595,-1.80047 2e-5,0 4e-5,0 6e-5,-2e-5 z m 1.06654,-10.86182 c 1.06779,-0.58157 2.56491,-0.67787 3.49469,0.19483 0.80142,0.75201 0.74316,1.99717 0.52029,3.01508 -0.24554,1.12073 -0.16853,2.30729 -0.50251,3.40239 -0.23367,0.76606 -1.08299,1.12528 -1.8479,1.23652 -0.61193,0.089 -1.37457,0.21513 -1.80221,-0.32017 -0.58617,-0.7338 -0.33003,-1.71952 -0.37388,-2.57957 -0.0581,-1.13578 -0.2998,-2.30036 -0.16916,-3.1247 0.13066,-0.82468 0.13781,-1.52882 0.68052,-1.82426 2e-5,0 4e-5,0 6e-5,-2e-5 z m 0.63882,-10.90007 c 1.03705,-0.63201 2.53118,-0.8185 3.50631,0.0169 0.84246,0.72178 0.84019,1.99012 0.65775,3.02754 -0.20114,1.14232 -0.0822,2.33271 -0.37903,3.44089 -0.20746,0.77463 -1.04562,1.16368 -1.80644,1.30267 -0.60879,0.11109 -1.36723,0.2657 -1.81449,-0.25406 -0.6138,-0.71325 -0.39276,-1.70948 -0.4684,-2.5688 -0.10019,-1.13459 -0.38779,-2.28821 -0.29231,-3.11563 0.0956,-0.82816 0.0686,-1.52805 0.59653,-1.84963 4e-5,0 6e-5,0 8e-5,-2e-5 z m -0.37527,-10.802337 c 0.92924,-0.763501 2.37883,-1.190109 3.4612,-0.486404 0.93811,0.609804 1.10477,1.906102 1.04777,2.98695 -0.0629,1.188825 0.17884,2.393579 -0.0169,3.553663 -0.13738,0.813535 -0.94288,1.273869 -1.69064,1.470407 -0.6003,0.157795 -1.3416,0.363992 -1.82683,-0.120978 -0.66187,-0.661398 -0.5255,-1.660569 -0.68319,-2.499414 -0.2083,-1.106139 -0.62386,-2.199358 -0.63267,-3.018026 -0.008,-0.820162 -0.13297,-1.496473 0.34152,-1.886282 3e-5,0 3e-5,-2.1e-5 5e-5,-2.1e-5 z m -2.05001,-10.592336 c 0.75895,-0.910171 2.07719,-1.661511 3.28805,-1.150302 1.05944,0.447185 1.47758,1.76059 1.60493,2.8698 0.13992,1.220259 0.55778,2.397828 0.52712,3.575587 -0.0215,0.823086 -0.75945,1.395038 -1.47146,1.700729 -0.57165,0.245411 -1.27751,0.564042 -1.83138,0.155697 -0.75931,-0.559707 -0.76902,-1.578298 -1.04798,-2.389434 -0.36808,-1.069549 -0.94169,-2.080734 -1.08058,-2.875248 -0.13949,-0.797712 -0.37901,-1.419004 0.0105,-1.886871 3e-5,-2.1e-5 3e-5,-2.1e-5 5e-5,-4.3e-5 z m -5.60345,-8.600223 c 0.17274,-1.16141 0.89414,-2.520786 2.2007,-2.699122 1.14612,-0.156537 2.2058,0.810126 2.90197,1.802585 0.74848,1.06732 1.72758,2.072192 2.22871,3.32399 0.0469,0.117404 0.0789,0.234807 0.0974,0.35118 0,0 0,0 0,0 0.0919,0.753254 -0.35629,1.41509 -0.85859,1.855731 -0.47347,0.41533 -1.03918,0.901314 -1.68923,0.682644 -0.36886,-0.124135 -0.63803,-0.350926 -0.87193,-0.619124 -0.31888,-0.372408 -0.57344,-0.824075 -0.89679,-1.167385 -0.73545,-0.780523 -1.68181,-1.349046 -2.17869,-1.942228 -0.50006,-0.596779 -1.02316,-0.987556 -0.93368,-1.588208 0,-2e-5 0,-4.1e-5 3e-5,-6.3e-5 z"/>
  </g>
  <use xlink:href="#tentacle-4" transform="matrix(-1,0,0,1,600,0)"/>
  <path id="eye" style="fill:#ffffff;" d="m 288.38728,303.39153 c 0.0976,4.99043 1.52704,10.90874 -1.14046,12.62531 -1.84148,1.18502 -2.71339,3.23569 -4.8317,2.68057 -2.21686,-0.58089 -2.70175,-3.0254 -2.79869,-5.0446 -0.13423,-2.79673 1.81088,-4.17242 2.91119,-6.72718 0.92867,-2.15621 3.47024,-3.84961 5.85966,-3.5341"/>
  <use xlink:href="#eye" transform="matrix(-1,0,0,1,600,0)"/>
</g>
<use id="shine" xlink:href="#shield" style="fill:url(#rg);stroke:#000000;stroke-width:3;"/>
</svg>
