<?xml version="1.0" encoding="UTF-8"?>
<svg xmlns="http://www.w3.org/2000/svg" xmlns:xlink="http://www.w3.org/1999/xlink" width="600" height="600">
<defs>
  <radialGradient id="rg" gradientUnits="userSpaceOnUse" cx="220" cy="220" r="405">
    <stop style="stop-color:#fff;stop-opacity:.3" offset="0"/>
    <stop style="stop-color:#fff;stop-opacity:.2" offset=".2"/>
    <stop style="stop-color:#666;stop-opacity:.1" offset=".6"/>
    <stop style="stop-color:#000;stop-opacity:.13" offset="1"/>
  </radialGradient>
  <circle id="shield" cx="300" cy="300" r="298"/>
</defs>
<use id="background" xlink:href="#shield" fill="#f80"/>
<path style="fill:#ffff00;stroke:#ff8800;stroke-width:2;stroke-linecap:round;" d="m 293.14,108.12 c -2.15,-0 -3.96,1.8 -3.96,3.96 0,2.15 1.8,3.96 3.96,3.95 l 14.11,0 c 2.16,0 3.96,-1.8 3.96,-3.95 0,-2.16 -1.8,-3.96 -3.96,-3.96 z m -0.41,271.25 0,-245.48 14.74,-0 -0,244.77 m -13.16,-262.46 -2.35,16.65 16.7,0 -2.15,-16.47 z m 5.91,-69.172 -0.13,61.292 m -0.1,-80.507 0,0.713 -20.44,67.105 c 0,0 4.85,-0 9.36,4.699 7.33,8.2 0.56,7.37 11.38,7.37 11.37,0.71 4.93,-0.84 10.97,-7.37 4.5,-4.705 9.39,-4.697 9.39,-4.697 l -20.45,-67.107 0,-0.713 -0.11,0.338 z"/>
<path style="fill:#cc0000;" d="m 300,113.92 c -11.28,15.05 -12.2,30.9 -9.38,47.36 2.79,16.32 1.54,32.17 -8.5,46.11 -4.97,-18.48 -14.31,-30.88 -26.54,-39.15 -14.63,-9.88 -22.39,-22.82 -26.77,-40.14 -4.66,18.2 0.51,33.2 9.41,47.32 8.82,14 13.75,29.13 9.83,45.84 -11.67,-15.17 -25.05,-23.04 -39.52,-26 -17.28,-3.54 -29.43,-12.5 -40.12,-26.84 2.68,18.62 13.21,30.48 26.84,40.12 13.52,9.56 23.85,21.66 26.62,38.62 -16.6,-9.55 -31.94,-11.74 -46.46,-8.93 -17.32,3.35 -31.96,-0.28 -47.32,-9.41 9.58,16.16 23.86,23.06 40.14,26.77 16.14,3.66 30.29,10.89 39.33,25.49 -18.97,-2.48 -33.96,1.4 -46.29,9.55 -14.72,9.71 -29.67,11.97 -47.36,9.38 15.05,11.28 30.9,12.22 47.36,9.4 16.32,-2.8 32.17,-1.54 46.11,8.48 -18.48,4.98 -30.88,14.31 -39.15,26.56 -9.88,14.61 -22.82,22.38 -40.14,26.77 18.2,4.66 33.2,-0.52 47.32,-9.43 14,-8.82 29.13,-13.74 45.84,-9.81 -15.17,11.65 -23.04,25.04 -26,39.5 -3.54,17.3 -12.5,29.43 -26.84,40.12 18.62,-2.67 30.48,-13.21 40.12,-26.84 9.56,-13.51 21.66,-23.85 38.62,-26.61 -9.55,16.59 -11.74,31.95 -8.93,46.45 3.35,17.32 -0.28,31.98 -9.41,47.32 16.16,-9.58 23.06,-23.86 26.77,-40.14 3.66,-16.15 10.91,-30.32 25.52,-39.36 -2.48,18.99 1.37,34.03 9.52,46.36 9.71,14.72 11.97,29.64 9.38,47.32 11.28,-15.03 12.22,-30.86 9.4,-47.32 -2.8,-16.32 -1.53,-32.2 8.51,-46.14 4.98,18.47 14.3,30.9 26.53,39.18 14.61,9.87 22.38,22.78 26.77,40.1 4.66,-18.2 -0.52,-33.16 -9.43,-47.28 -8.82,-14.01 -13.72,-29.17 -9.79,-45.9 11.67,15.17 25.02,23.06 39.48,26.02 17.3,3.53 29.43,12.5 40.12,26.84 -2.67,-18.62 -13.21,-30.46 -26.84,-40.12 -13.51,-9.56 -23.8,-21.68 -26.58,-38.65 16.58,9.55 31.92,11.77 46.42,8.96 17.32,-3.35 31.98,0.28 47.32,9.43 -9.58,-16.18 -23.86,-23.08 -40.14,-26.77 -16.14,-3.67 -30.25,-10.93 -39.3,-25.52 18.95,2.45 33.99,-1.39 46.3,-9.52 14.72,-9.73 29.64,-11.97 47.32,-9.4 -15.03,-11.28 -30.86,-12.2 -47.32,-9.38 -16.32,2.79 -32.2,1.51 -46.14,-8.53 18.47,-4.98 30.9,-14.28 39.18,-26.51 9.87,-14.63 22.78,-22.39 40.1,-26.77 -18.2,-4.66 -33.16,0.51 -47.28,9.41 -14.01,8.82 -29.17,13.74 -45.9,9.79 15.17,-11.66 23.06,-25.01 26.02,-39.48 3.54,-17.28 12.5,-29.43 26.84,-40.12 -18.62,2.68 -30.46,13.21 -40.12,26.84 -9.56,13.52 -21.68,23.82 -38.65,26.58 9.55,-16.57 11.77,-31.9 8.96,-46.42 -3.35,-17.32 0.28,-31.96 9.43,-47.32 -16.18,9.58 -23.08,23.86 -26.77,40.14 -3.67,16.13 -10.91,30.26 -25.51,39.3 2.46,-18.95 -1.4,-33.95 -9.53,-46.26 -9.73,-14.72 -11.97,-29.67 -9.4,-47.36 z"/>
<path style="fill:#ffff00;" d="m 305.64,313.54 v 229.08 0 0 c 0,2.62 -0.63,6.16 -5.46,6.16 -4.18,0 -5.57,-3.62 -5.57,-6.16 v -229.08 c 0,0 1.89,1.33 5.52,1.33 3.63,0 5.53,-1.33 5.53,-1.33 z"/>
<use id="shine" xlink:href="#shield" fill="url(#rg)" stroke="#000" stroke-width="3"/>
</svg>
