<?xml version="1.0" encoding="UTF-8"?>
<svg xmlns="http://www.w3.org/2000/svg" xmlns:xlink="http://www.w3.org/1999/xlink" width="600" height="660">
<defs>
  <radialGradient id="rg" gradientUnits="userSpaceOnUse" cx="220" cy="220" r="405">
    <stop style="stop-color:#ffffff;stop-opacity:.3" offset="0"/>
    <stop style="stop-color:#ffffff;stop-opacity:.2" offset=".2"/>
    <stop style="stop-color:#666666;stop-opacity:.1" offset=".6"/>
    <stop style="stop-color:#000000;stop-opacity:.13" offset="1"/>
  </radialGradient>
  <pattern id="bg" patternUnits="userSpaceOnUse" x="35" y="0" width="212" height="220">
    <rect x="0" y="0" width="212" height="220" fill="#0000bb"/>
    <path fill="#990000" d="m 159,0 c 9.42478,18.33333 18,36.66667 18,55 0,18.33333 -8.57522,36.66667 -18,55 -9.42478,18.33333 -18,36.66667 -18,55 0,18.33333 8.57522,36.66667 18,55 H 53 C 43.57522,201.66667 35,183.33333 35,165 35,146.66667 43.57522,128.33333 53,110 62.42478,91.66667 71,73.33333 71,55 71,36.66667 62.42478,18.33333 53,0 Z"/>
  </pattern>
  <path id="shield" d="m2,2v257c0,286 298,398 298,398c0,0 298-112 298-398V2z"/>
</defs>
<use id="field" xlink:href="#shield" style="fill:#ffffff;"/>
<use xlink:href="#shield" style="fill:url(#bg);"/>
<g style="fill:#cccccc;stroke:url(#bg);stroke-width:1.5;">
<path d="m 423.48835,202.46178 c 25.94743,2.56303 41.34237,-2.43786 62.02766,3.32898 2.32331,2.60958 1.55243,4.9315 3.57269,7.54908 2.02026,2.61759 6.83164,5.53084 8.54463,8.14613 1.71299,2.61528 0.9164,6.10958 2.3179,8.71228 1.4015,2.6027 5.00109,4.31381 6.08688,6.89364 1.08579,2.57982 -0.48925,5.43988 0.27628,7.98654 0.76586,2.54666 3.8727,4.77992 4.31435,7.28313 0.44178,2.5032 -1.63472,5.42347 -1.52144,7.87293 0.11341,2.44945 2.41423,4.42811 2.19664,6.81353 -0.21957,2.38542 -2.66651,4.00065 -3.22296,6.31175 -0.55651,2.31109 0.77853,5.31806 -0.11868,7.54454 -0.89735,2.22648 -4.02687,2.20126 -5.26959,4.33284 -1.24272,2.13158 -0.59871,6.41994 -2.19084,8.44632 -1.59225,2.02638 -4.83215,2.37925 -6.77823,4.29014 -1.94608,1.9109 -2.59827,5.3798 -4.90238,7.16492 -2.30412,1.78512 -5.96569,1.5922 -8.632,3.24125 -2.66638,1.64908 -4.33743,5.14007 -7.37029,6.64276 z"/>
<path style="fill:none;" d="m 466.57456,283.81347 c 10.59984,1.4628 19.01438,2.88398 30.8057,6.44988 m -32.05455,-16.43679 c 20.19749,2.53133 22.05389,0.37859 36.84194,5.40958 M 463.0361,262.59129 c 22.52468,2.99354 23.62294,-0.79586 41.213,3.32897 M 459.08137,251.9802 c 19.43664,1.51627 27.41131,-3.21126 43.29445,-0.20808 M 452.00437,240.3288 c 17.18026,0.66645 27.54411,-5.79687 47.04114,-1.87255 m -53.90997,-10.61109 c 16.85822,-1.4973 30.22921,-6.51048 47.66557,-2.91285 m -56.82395,-9.98691 c 19.39516,2.60167 27.88606,-5.20383 47.24924,-1.87254 m 1.66512,87.1774 c -4.13685,-3.01346 -8.7284,-5.48151 -15.61095,-5.20152"/>

<path style="fill:#aaaaaa;" d="m 279.59121,264.70309 c -12.56627,-7.80842 -23.21567,-5.03838 -38.28911,80.948 0.34438,1.55106 1.27462,2.33678 2.64915,2.47216 1.37447,0.13537 2.46577,-1.65867 4.58686,-2.70893 2.12111,-1.05032 4.08258,-0.17346 6.66684,-2.17935 1.29214,-1.00298 2.24325,-3.07901 3.59796,-4.27772 1.35476,-1.19869 4.30237,-2.7035 5.68426,-4.06926 1.38188,-1.36575 2.04122,-4.0869 3.41486,-5.59089 1.37364,-1.50399 3.46167,-1.79094 4.79165,-3.40442 1.32999,-1.61348 1.79138,-4.15241 3.04226,-5.84671 1.25081,-1.69425 3.29103,-2.5439 4.4273,-4.29016 1.13653,-1.74619 1.16868,-4.4442 2.15437,-6.21383 0.98634,-1.76953 4.40735,-3.28235 5.20815,-5.04638 1.60172,-3.52801 1.60135,-6.30168 1.96383,-9.67794 3.70973,-16.98947 1.85662,-22.81025 -9.89838,-30.11457 z"/>
<path style="fill:none;" d="m 285.59753,276.36432 c -2.01037,7.58878 -3.75466,17.0026 -6.14581,29.38388 m -9.44105,15.25358 c 3.08075,-21.45943 7.34274,-38.20027 10.29711,-48.44146 m -21.11242,59.81279 c 4.32579,-28.38166 11.70344,-51.34092 15.6996,-64.01117 m -25.68035,71.83604 c 4.7965,-25.59723 11.24366,-51.59706 19.55211,-72.13747"/>

<path style="fill:#aaaaaa;" d="m 348.16212,332.45191 c -12.23102,-8.32333 -22.98632,-5.99775 -41.61916,79.28872 0.27964,1.56401 1.17643,2.38767 2.54416,2.58 1.36766,0.19231 2.53255,-1.55488 4.69545,-2.51618 2.16291,-0.96137 4.08626,-0.004 6.75163,-1.90072 1.33269,-0.94847 2.36923,-2.98323 3.77257,-4.12467 1.4034,-1.14142 4.41099,-2.52257 5.84842,-3.82979 1.43743,-1.30721 2.20926,-3.99863 3.64419,-5.44431 1.43494,-1.44567 3.53309,-1.6457 4.92896,-3.20258 1.39588,-1.55687 1.96236,-4.07445 3.28255,-5.71536 1.32011,-1.64087 3.39388,-2.4051 4.60172,-4.10268 1.2081,-1.69751 1.35231,-4.39185 2.41067,-6.11904 1.05901,-1.72705 4.53992,-3.09656 5.41331,-4.82582 1.74692,-3.45848 1.86178,-6.22977 2.36421,-9.58808 4.41239,-16.82081 2.8027,-22.7135 -8.63868,-30.49949 z"/>
<path style="fill:none;" d="m 353.67878,344.35242 c -2.32393,7.49877 -4.45782,16.83207 -7.3613,29.10341 m -10.06663,14.8485 c 3.96964,-21.31303 8.92347,-37.8625 12.30078,-47.97222 m -23.5792,58.88477 c 5.5012,-28.1776 13.82636,-50.81079 18.34547,-63.30422 m -28.64271,70.70802 c 5.85584,-25.37603 13.37762,-51.0858 22.53228,-71.26358"/>

<path d="m 170.69742,112.69772 c -2.9469,0.12727 -6.02899,0.34821 -9.25956,0.50204 -24.54755,1.16919 -34.12403,8.25683 -17.48888,19.5671 34.33889,23.34708 22.79305,44.74667 49.95533,60.33618 -32.11457,-12.98307 -60.33812,-8.86158 -79.09915,-29.96856 -6.55168,-7.37092 -15.379194,14.84489 18.73807,34.95044 51.8456,30.55299 33.93213,24.89235 57.96569,43.48531 17.97676,13.90726 30.6046,25.50356 49.77503,36.23774 31.84209,17.82951 82.73331,54.57835 113.48448,86.58442 22.79398,23.72413 14.56532,85.34604 -13.43217,89.53239 -59.08739,8.83507 -96.94537,-45.38763 -103.54236,-52.58661 -2.74179,-2.99199 -2.08105,3.36116 -2.76885,7.06736 -0.42965,2.3149 -1.91077,3.34791 -2.03479,6.11469 -0.12403,2.76678 1.65831,4.18016 2.13781,7.44067 0.47957,3.26045 -0.43677,6.3407 0.48939,9.28148 0.9261,2.94078 3.27976,5.32238 4.4688,8.04566 1.18905,2.72328 1.21713,5.78527 2.48554,8.39327 1.26842,2.608 3.35611,4.56257 4.52032,7.15746 1.16421,2.59482 1.40306,5.82514 2.27947,8.50907 0.87642,2.684 2.59561,6.27756 3.00067,9.15276 0.40505,2.8752 -0.50996,5.03152 -0.75982,8.20022 -0.29811,3.77969 0.34993,7.96295 -0.46361,11.00648 -0.81356,3.04347 -3.0913,4.95414 -4.24987,7.505 -1.15857,2.55086 -1.61604,6.37477 -2.94916,8.67649 -1.33313,2.30165 -3.53082,3.07208 -4.86803,5.36806 -1.33721,2.29598 -0.97983,5.4861 -2.1507,8.01997 -1.17085,2.5338 -3.87945,4.4125 -4.71349,7.4277 -0.83402,3.0152 0.41692,5.0909 0.0901,8.8309 -0.16346,1.8701 -2.12025,5.0864 -2.12494,7.1833 -0.005,2.0969 1.9498,5.3568 2.12494,7.711 0.30377,4.0832 -0.90846,5.3975 0.12877,6.3978 6.14706,5.9282 25.26237,-35.758 58.39065,-47.74624 21.52566,-7.7896 37.75524,-3.75022 55.40293,-7.85261 85.0447,-15.45674 133.95391,-108.09593 126.37572,-196.79093 -5.8888,-68.92244 -49.36504,-116.20329 -104.75293,-145.16985 -28.53679,-14.92409 -59.5504,-24.95246 -97.52811,-32.865 -37.97771,-7.91251 -38.39069,-10.95308 -91.17909,-15.62793 -2.6896,-0.2382 -5.50133,-0.20452 -8.44824,-0.0773 z"/>
<path style="fill:none;" d="m 171.52708,222.95576 c 8.81608,6.31765 36.16292,14.02552 62.44392,7.49017 34.09742,-8.47906 41.52522,-51.49499 10.30325,-71.4688"/>
<path style="fill:none;" d="m 355.07438,364.78252 c 32.07691,31.93245 33.97743,77.14818 2.90382,126.64241"/>
<path style="fill:none;" d="m 296.78966,481.9912 c -21.4263,7.7867 -22.28784,0.60572 -43.3694,13.04937 M 301.015,484.75844 c -28.50297,13.2933 -30.5565,11.57469 -54.87987,27.90481 m 57.7939,-21.2053 c -38.91896,19.01636 -48.01757,21.5193 -66.24465,40.43016 m 68.28449,-33.43932 c -32.65834,16.65485 -49.62304,20.93816 -69.59581,50.62502 m 59.9795,-71.01494 c -22.25151,-5.18404 -21.97569,0.41787 -39.40438,-7.96901 m 44.06682,1.26943 c -18.59607,-7.78921 -31.1686,-3.80816 -52.15546,-22.72881 m 55.06949,16.0293 c -24.40944,-13.64467 -45.94668,-13.6425 -61.13899,-32.25594 m 63.17883,25.2651 c -23.53524,-11.89692 -46.9416,-12.49196 -66.9171,-42.1803"/>

<path d="m 283.85304,265.51116 c -6.54076,-13.26673 -17.04628,-16.54001 -75.29886,48.49932 -0.52757,1.49872 -0.15317,2.65714 0.94221,3.49811 1.09535,0.84092 2.97024,-0.10577 5.32622,0.12294 2.35602,0.22866 3.55774,2.00915 6.81212,1.67118 1.62722,-0.169 3.53216,-1.42915 5.31596,-1.73128 1.78385,-0.30208 5.08182,-0.0227 6.97701,-0.45232 1.89518,-0.42959 3.89345,-2.39153 5.85471,-2.94285 1.96126,-0.55131 3.88566,0.30797 5.86774,-0.35935 1.98208,-0.66732 3.71596,-2.57912 5.67361,-3.35684 1.95755,-0.77772 4.13882,-0.42142 6.02664,-1.30379 1.888,-0.88217 3.34155,-3.15576 5.11388,-4.13751 1.77282,-0.98131 5.47694,-0.4587 7.08933,-1.53335 3.22487,-2.1492 4.69081,-4.5042 6.78336,-7.17914 12.13075,-12.46431 13.63455,-18.38488 7.51607,-30.79512 z"/>
<path style="fill:none;" d="m 282.78777,278.5839 c -5.71847,5.38088 -12.17583,12.45174 -20.75106,21.70026 m -16.07889,7.96329 c 13.95972,-16.59148 26.42788,-28.55301 34.34996,-35.68713 m -49.54328,39.62857 c 18.67608,-21.81072 37.07667,-37.40591 47.16729,-46.05198 m -59.77731,47.42334 c 17.60376,-19.19814 36.82174,-37.86621 54.73387,-50.91618"/>

<path d="m 349.0361,341.36653 c -14.18842,-4.19611 -23.72099,1.29882 -15.43239,88.20126 0.74371,1.40415 1.84915,1.91502 3.21036,1.68104 1.36115,-0.23398 1.93718,-2.25314 3.70351,-3.82826 1.76633,-1.57519 3.89024,-1.24993 5.8495,-3.86926 0.97964,-1.30971 1.34565,-3.56357 2.33366,-5.07859 0.98807,-1.51501 3.43066,-3.74758 4.40053,-5.43087 0.96988,-1.68328 0.88337,-4.48176 1.8086,-6.29614 0.92523,-1.81437 2.86228,-2.64478 3.71636,-4.55314 0.85409,-1.90837 0.62509,-4.47867 1.38146,-6.44398 0.7563,-1.96524 2.49791,-3.3255 3.12998,-5.31052 0.63234,-1.98501 -0.0528,-4.59486 0.42794,-6.56248 0.48134,-1.96768 3.37824,-4.33353 3.68214,-6.24671 0.60794,-3.82635 -0.12858,-6.50053 -0.6752,-9.85193 -0.93242,-17.36444 -4.26404,-22.48521 -17.53645,-26.41042 z"/>
<path style="fill:none;" d="m 357.92222,351.01703 c 0.0758,7.84998 0.8926,17.38903 1.87328,29.96075 m -5.05423,17.21068 c -2.72526,-21.50743 -3.05923,-38.77861 -2.92888,-49.4363 m -4.48077,63.26828 c -3.36209,-28.51177 -2.3425,-52.60479 -1.85238,-65.88076 m -5.6939,76.07207 c -2.16921,-25.95196 -2.85377,-52.72983 -0.29474,-74.73752"/>

<path style="fill:#eeeeee;" d="m 188.28287,136.71464 c 3.47527,-5.04143 12.02657,-4.23897 17.13943,-0.86793 5.25649,3.46573 7.41858,10.51518 3.82852,15.68639 -3.68067,5.3017 -11.48007,3.67432 -16.70834,-0.11146 -4.80077,-3.4762 -7.62316,-9.82765 -4.25961,-14.70702 z"/>
<path style="fill:#000000;stroke:none;" d="m 198.79427,143.1125 c 0.8134,0.51726 2.36095,0.31024 3.01655,-0.46764 0.64836,-0.76932 -1.85536,-1.96155 -0.0508,-3.0174 1.5668,-0.91659 3.86839,2.08781 3.79866,3.90114 -0.0968,2.5165 -3.15589,4.86442 -5.67199,4.99345 -2.89373,0.14837 -6.27126,-2.26336 -7.07698,-5.04547 -0.62515,-2.15875 0.49559,-5.32834 2.5498,-6.24182 1.44878,-0.64427 4.38183,0.0303 4.47515,1.61247 0.13253,2.24691 -1.2502,0.94863 -1.87333,1.50844 -0.71421,0.64164 0.0224,2.24159 0.8326,2.75681 z"/>

<path style="fill:#aaaaaa;stroke:none;" d="m 444.03977,268.28455 c 2.84458,0.32208 5.07602,4.29497 5.36646,7.36658 0.29861,3.1579 -1.60883,5.81106 -4.5341,5.46949 -2.99909,-0.3502 -4.71106,-4.18938 -4.88578,-7.41189 -0.16047,-2.95901 1.30036,-5.73591 4.05346,-5.42421 z m -2.89234,-24.13886 c 2.84115,-0.35107 5.93862,2.99091 6.93829,5.90978 1.02776,3.00087 -0.2074,6.02609 -3.13156,6.37705 -2.99795,0.35981 -5.55909,-2.97346 -6.48147,-6.06609 -0.847,-2.83973 -0.075,-5.88098 2.67477,-6.22078 z m -24.20094,-10.70362 c 2.80549,-0.56977 6.15217,2.52262 7.3746,5.35544 1.25679,2.91238 0.25931,6.02407 -2.62894,6.60015 -2.96114,0.59061 -5.77242,-2.53458 -6.93124,-5.54661 -1.06409,-2.76571 -0.52968,-5.85756 2.18562,-6.40902 z m 0.98285,-21.73338 c 2.66556,-1.0441 6.49452,1.42617 8.18625,4.00633 1.73927,2.65264 1.29221,5.88956 -1.4538,6.95413 -2.81531,1.09142 -6.1225,-1.50331 -7.78241,-4.27095 -1.52421,-2.54131 -1.52989,-5.67901 1.04998,-6.68955 z m -28.65415,-4.69264 c 2.33622,-1.65453 6.64689,-0.17762 8.90951,1.91994 2.32617,2.15649 2.67072,5.40592 0.26134,7.09966 -2.4702,1.73647 -6.30435,0.0133 -8.58116,-2.27393 -2.09066,-2.10014 -2.85078,-5.14438 -0.58967,-6.74572 z m -7.30047,-21.85795 c 2.28572,-1.72362 6.63861,-0.37624 8.96291,1.65275 2.3896,2.08598 2.83113,5.32367 0.47346,7.08867 -2.41719,1.80954 -6.30114,0.20173 -8.6453,-2.01639 -2.1525,-2.03671 -3.00329,-5.05686 -0.79106,-6.72508 z m -29.27068,5.37679 c 1.84643,-2.18771 6.38976,-1.83948 9.10624,-0.37663 2.79279,1.50394 3.94152,4.56302 2.03411,6.80704 -1.95556,2.30065 -6.0994,1.59446 -8.8772,-0.0484 -2.55067,-1.50849 -4.05021,-4.26467 -2.26315,-6.38206 z m -6.17969,-20.51658 c 1.84643,-2.18771 6.38976,-1.83948 9.10624,-0.37663 2.79279,1.50394 3.94152,4.56302 2.03411,6.80704 -1.95556,2.30065 -6.0994,1.59446 -8.8772,-0.0484 -2.55067,-1.50849 -4.05021,-4.26467 -2.26315,-6.38206 z"/>
</g>
<use id="shine" xlink:href="#shield" style="fill:url(#rg);stroke:#000000;stroke-width:3;"/>
</svg>
