<?xml version="1.0" encoding="UTF-8"?>
<svg xmlns="http://www.w3.org/2000/svg" xmlns:xlink="http://www.w3.org/1999/xlink" width="600" height="660">
<defs>
  <radialGradient id="rg" gradientUnits="userSpaceOnUse" cx="220" cy="220" r="405">
    <stop style="stop-color:#fff;stop-opacity:.3" offset="0"/>
    <stop style="stop-color:#fff;stop-opacity:.2" offset=".2"/>
    <stop style="stop-color:#666;stop-opacity:.1" offset=".6"/>
    <stop style="stop-color:#000;stop-opacity:.13" offset="1"/>
  </radialGradient>
  <path id="shield" d="m2,2v257c0,286 298,398 298,398c0,0 298-112 298-398V2z"/>
</defs>
<use style="fill:#0088ee" id="shine" xlink:href="#shield"/>
<g id="moon">
  <circle style="fill:#f2f2f2" cx="300" cy="300" r="200"/>
  <path style="fill:#f9f9f9" d="m 326.72435,496.76751 c 38.44843,-6.45956 62.15494,-15.4195 88.30284,-33.3737 14.26249,-9.79307 46.54266,-43.44914 55.3359,-57.69368 14.65925,-23.74787 19.08839,-34.88877 27.82455,-69.98049 3.77131,-15.14779 4.49336,-49.94858 1.39547,-67.25124 -3.51764,-19.64528 -13.36654,-48.77117 -19.68361,-58.20804 -3.3562,-5.01375 -6.10216,-9.50896 -6.10216,-9.98936 0,-3.72752 -16.19294,-25.20348 -28.78311,-38.17437 -19.53306,-20.12288 -28.5824,-27.37812 -46.39386,-37.19463 -48.04626,-26.480606 -111.67711,-32.395716 -162.18382,-15.07729 -39.87418,13.67296 -71.83583,37.2996 -100.02025,73.93615 -14.11956,18.35236 -23.44004,37.12113 -29.92165,60.24795 -7.644879,27.2784 -8.659341,35.57282 -7.729306,63.18712 0.752321,22.33429 1.633386,28.54857 6.401846,45.14442 5.76458,20.06341 22.24787,53.54033 33.35796,67.75337 10.73687,13.73367 26.82444,29.34457 30.24001,29.34457 1.93168,0 4.23916,1.84643 5.32855,4.26408 4.03518,8.95489 46.50632,32.10356 71.30634,38.86368 12.2891,3.35032 21.34467,4.57532 35.87897,4.85368 10.69277,0.2048 19.97084,0.90812 20.61969,1.56309 1.61422,1.63217 2.26874,1.57375 24.82425,-2.21593 z m -33.30779,-8.41622 c -5.24498,-1.17813 -3.5315,-5.6721 2.16285,-5.6721 3.28337,0 5.19082,0.89556 5.19082,2.43708 0,2.84822 -3.06779,4.19778 -7.35367,3.23502 z m -73.00376,-12.50552 c -0.64353,-1.05283 -3.32418,-1.9143 -5.95716,-1.9143 -2.81775,0 -6.39438,-1.72982 -8.69392,-4.20496 -3.48356,-3.74939 -3.60245,-4.37727 -1.09653,-5.79524 1.6481,-0.93259 2.37411,-2.73992 1.75537,-4.3703 -1.39847,-3.68482 -7.26646,-5.13796 -8.42472,-2.08612 -1.20533,3.17589 -5.53982,1.39012 -12.91062,-5.31905 -18.60391,-16.93387 -19.88258,-21.20058 -6.26514,-20.89266 4.73922,0.10665 11.83818,1.07473 15.77526,2.15138 5.85802,1.60186 8.14683,1.45883 12.60003,-0.78747 4.80013,-2.42132 5.38426,-3.50008 4.95359,-9.14941 -0.37999,-4.98524 0.087,-6.24857 2.10731,-5.70079 1.42748,0.38706 3.76336,0.58163 5.19083,0.4324 16.59853,-1.73532 18.07098,-1.46583 24.78098,4.53806 4.45236,3.98311 7.27927,5.38622 8.65138,4.29383 1.12092,-0.89247 5.41145,-2.05638 9.5345,-2.58665 4.12308,-0.53017 7.73348,-1.22695 8.02312,-1.54842 0.28962,-0.32145 1.09317,-4.83651 1.78565,-10.03344 1.14148,-8.56666 0.9754,-9.3389 -1.77839,-8.27047 -1.70312,0.66083 -4.83075,-0.008 -7.11937,-1.52572 -5.14601,-3.40928 -5.55679,-7.0439 -0.48614,-4.29997 4.02963,2.18059 8.51623,1.11196 8.51623,-2.02839 0,-1.13577 2.90166,-4.90002 6.44838,-8.3651 5.31992,-5.19764 6.55324,-5.76429 7.04793,-3.23835 0.3298,1.6839 1.80779,3.06164 3.28442,3.06164 3.8033,0 1.59947,-10.61552 -2.84544,-13.7062 -2.61238,-1.81634 -3.0202,-3.2303 -1.83858,-6.37296 0.83523,-2.22118 1.11756,-5.58898 0.62747,-7.48404 -0.55655,-2.15192 0.13563,-3.84386 1.84377,-4.50657 4.36255,-1.69268 8.11897,0.65596 7.5658,4.73032 -0.41404,3.04941 0.50979,3.81988 5.11816,4.26914 3.75435,0.36602 5.63377,-0.21548 5.65454,-1.74951 0.0377,-2.79482 14.00987,-12.25041 22.91057,-15.50469 7.49918,-2.74183 8.3124,-6.14026 2.14882,-8.97991 -3.24425,-1.49461 -5.94592,-1.48575 -10.81422,0.0354 -8.72714,2.72696 -18.60217,0.51703 -18.60217,-4.16313 0,-2.33195 1.3825,-3.61609 4.32569,-4.01811 2.37912,-0.32494 5.88292,-2.03032 7.78624,-3.78981 4.03049,-3.72611 19.41713,-3.6108 21.72358,0.16276 1.11249,1.82001 1.886,1.81162 4.0985,-0.0451 1.50002,-1.25873 2.72725,-3.37305 2.72725,-4.69868 0,-3.10976 3.4225,-2.98957 7.68435,0.26984 1.84723,1.41277 5.00066,2.56864 7.00761,2.56864 2.00693,0 4.5648,0.92615 5.68429,2.05813 1.56041,1.57778 2.83627,1.32523 5.46716,-1.0821 2.31804,-2.12112 4.8335,-2.78435 7.75127,-2.04396 4.72747,1.19971 5.32856,3.30027 6.89567,24.10128 0.87431,11.60294 0.84887,11.68517 -4.98302,16.183 -6.76053,5.2139 -9.03377,5.49345 -15.80018,1.94404 -4.19296,-2.19947 -5.4251,-2.22397 -8.41658,-0.16752 -2.21198,1.52084 -3.3844,4.08423 -3.17867,6.95046 0.36804,5.13062 -0.58225,5.58621 -4.51516,2.16466 -4.0902,-3.5585 -13.17189,-6.20673 -15.75311,-4.59384 -1.70477,1.06531 -1.86038,2.87741 -0.62309,7.25679 1.2651,4.47787 3.03942,6.29561 7.62049,7.80738 4.56239,1.50552 6.21877,3.19285 7.01938,7.15077 1.55631,7.69418 3.00756,9.24863 8.63477,9.24863 3.2837,0 6.43972,-1.55778 8.86124,-4.37379 4.54526,-5.28562 11.78836,-5.94852 11.78836,-1.07881 0,1.81216 1.39372,3.66349 3.09719,4.11381 1.70336,0.45042 4.33936,4.01654 5.85768,7.92495 l 2.76064,7.10599 -5.63687,6.04248 c -3.10031,3.32336 -5.96374,7.03443 -6.36361,8.24701 -0.39971,1.21248 -4.58697,2.8195 -9.3049,3.57129 -11.47934,1.82893 -18.58314,-1.98676 -19.82548,-10.64982 -0.76349,-5.32358 -1.57658,-6.14166 -6.92109,-6.96375 -3.7182,-0.57194 -8.60882,0.18575 -12.66908,1.96294 -9.66117,4.22858 -10.72494,5.85703 -6.45463,9.87967 2.95567,2.78436 3.34325,4.28492 2.01717,7.81158 -1.33016,3.53753 -0.95401,4.96023 1.98358,7.5035 l 3.62511,3.13844 -5.8006,1.93811 c -7.37822,2.46525 -8.43888,5.68977 -2.73589,8.31717 7.66322,3.53035 4.53643,6.9342 -8.51538,9.26979 -3.8066,0.6812 -12.76076,3.2074 -19.89816,5.61385 -11.0227,3.71648 -13.88908,4.08318 -19.03302,2.43497 -5.79779,-1.85763 -29.30567,-0.36779 -41.75672,2.64631 -2.60924,0.63165 -5.05533,0.285 -5.72549,-0.81142 z m 30.17947,-13.18291 c 0,-3.42048 -3.35397,-5.28457 -5.53688,-3.07739 -0.97613,0.98698 -1.25167,2.65032 -0.61225,3.69654 1.69602,2.77472 6.14904,2.32649 6.14904,-0.61907 z m -19.03302,-32.4692 c 0,-0.96224 -1.12198,-1.74952 -2.49332,-1.74952 -1.37135,0 -2.97452,0.78728 -3.56265,1.74952 -0.58812,0.96224 0.53384,1.74951 2.49333,1.74951 1.9595,0 3.56264,-0.78727 3.56264,-1.74951 z m 101.07919,-18.55709 c 3.86611,-1.50007 3.40172,-4.18657 -0.72362,-4.18657 -1.9225,0 -3.46055,1.16636 -3.46055,2.62426 0,2.94444 0.31689,3.06287 4.18415,1.56234 z m -21.32047,-15.9356 c 6.77716,-4.04786 6.32608,-6.75348 -1.82697,-10.95912 -9.10627,-4.69727 -11.88561,-4.45827 -13.27571,1.14198 -0.94742,3.81673 -0.23776,5.42332 3.86022,8.73881 6.00304,4.85683 5.0666,4.76707 11.24265,1.07822 z m -22.65966,-0.49754 c 0,-0.96223 -0.77862,-1.74951 -1.73028,-1.74951 -0.95166,0 -1.73027,0.78728 -1.73027,1.74951 0,0.96222 0.77861,1.74951 1.73027,1.74951 0.95166,0 1.73028,-0.78729 1.73028,-1.74951 z m 45.56506,-35.73728 c 0.98286,-2.58982 -3.37387,-7.50577 -5.1026,-5.75765 -1.33537,1.3502 0.94529,8.25401 2.72675,8.25401 0.7857,0 1.85485,-1.12336 2.37601,-2.49636 z m -7.22528,91.89138 c -1.80226,-1.12618 -1.65337,-1.68155 0.69469,-2.59262 3.56367,-1.38268 5.5213,0.0596 3.22816,2.3783 -0.89615,0.90613 -2.66151,1.00255 -3.92288,0.2143 z m 87.05876,-14.24331 c -1.5633,-2.55762 2.41789,-6.92143 6.31463,-6.92143 3.96164,0 4.16669,2.32109 0.52981,5.9984 -3.16397,3.19914 -5.27889,3.48431 -6.84444,0.9231 z m -252.37786,-16.98111 c -1.36697,-2.64614 -4.8908,-7.1235 -7.83071,-9.94966 -2.93991,-2.82616 -5.34533,-5.86191 -5.34533,-6.7463 0,-0.88437 -1.94656,-3.15594 -4.32569,-5.04821 -2.37913,-1.89228 -4.32568,-4.95778 -4.32568,-6.81243 0,-3.64319 2.55251,-4.52355 4.3916,-1.51461 0.62447,1.02158 3.00636,2.57667 5.29292,3.45564 2.84544,1.09381 4.15768,2.96593 4.15768,5.93135 0,3.14896 2.07079,5.77357 7.57807,9.60484 8.02987,5.58618 10.24254,8.99127 8.62023,13.26621 -1.56531,4.12446 -5.49292,3.0786 -8.21309,-2.18692 z m 234.22727,-0.39728 c 2.47535,-4.67662 8.67266,-8.06841 8.67266,-4.7466 0,2.87777 -5.46437,8.20556 -8.41588,8.20556 -1.54324,0 -1.61019,-0.9018 -0.25678,-3.45896 z m 36.7545,-9.11567 c 1.06932,-3.24394 4.79425,-3.78208 4.79425,-0.69249 0,1.52352 -1.23282,2.76999 -2.73954,2.76999 -1.5069,0 -2.43138,-0.9349 -2.05471,-2.07755 z m 9.98507,-7.30387 c 0,-3.0508 10.02365,-10.80813 11.73282,-9.07996 0.63363,0.64064 -0.0207,3.28524 -1.45517,5.8768 -2.89215,5.22718 -10.27765,7.52902 -10.27765,3.20335 z m -275.73656,-0.57997 c -1.67534,-1.69394 -1.32426,-12.43953 0.44249,-13.54366 1.87458,-1.17147 3.64189,3.03769 3.64189,8.67409 0,4.26863 -2.14711,6.82834 -4.08432,4.86957 z m 29.86453,-1.806 c -3.53945,-2.22469 -4.96138,-5.17628 -6.66294,-13.83236 -1.18979,-6.05225 -3.21519,-11.88705 -4.50114,-12.96597 -3.88983,-3.26406 -8.50829,-1.22111 -9.10763,4.0286 -0.30116,2.63826 -1.94605,5.55365 -3.6552,6.47844 -2.54249,1.37583 -4.72418,-0.0868 -11.99688,-8.04267 -4.88906,-5.34844 -8.88929,-10.81847 -8.88929,-12.15597 0,-1.33739 -2.72518,-3.583 -6.05595,-4.99013 -5.97361,-2.52368 -8.41036,-7.98548 -3.56264,-7.98548 4.09607,0 5.18597,-3.86013 1.79741,-6.36543 -1.73755,-1.28461 -3.31382,-4.11746 -3.50278,-6.29526 -0.18906,-2.17779 -0.91166,-6.42404 -1.60586,-9.43634 -1.22226,-5.30348 -0.96271,-5.61524 8.20704,-9.86008 5.44812,-2.52193 11.2845,-4.03246 13.74392,-3.55711 2.62397,0.50718 5.41004,-0.32166 7.21456,-2.1463 2.71998,-2.75024 2.73054,-3.29538 0.14164,-7.29057 -3.10653,-4.79367 -2.29935,-9.28396 1.66866,-9.28396 1.42028,0 4.10819,-1.65608 5.97325,-3.6801 l 3.39084,-3.68011 2.61841,5.11977 c 1.44012,2.81585 3.83775,6.1429 5.32785,7.39345 3.09392,2.59628 3.5841,9.00876 0.89641,11.72627 -2.62101,2.65017 1.57627,11.11308 5.51144,11.11308 1.72862,0 4.42087,-1.97204 5.98295,-4.38253 2.33691,-3.60608 2.44627,-4.86222 0.61718,-7.09059 -1.88082,-2.29134 -1.24668,-3.66681 4.12099,-8.93826 3.4891,-3.42659 6.34388,-7.32136 6.34388,-8.65503 0,-3.79993 4.84546,-2.83996 7.62913,1.51169 1.38498,2.16501 3.06587,6.1875 3.73549,8.93878 1.18271,4.85997 1.06297,4.96809 -4.20854,3.79749 -4.16202,-0.92432 -5.4258,-0.60554 -5.4258,1.36865 0,1.41547 -1.94657,3.06759 -4.32569,3.67134 -4.98457,1.26496 -5.89713,6.2797 -1.14289,6.2797 1.75052,0 4.04851,1.92114 5.10675,4.26935 1.80414,4.00357 1.57918,4.30291 -3.61543,4.81114 -4.5352,0.44367 -5.46767,1.23774 -5.1441,4.38114 0.24346,2.36552 -1.30656,5.19255 -4.03812,7.36527 -2.4383,1.93934 -3.90938,4.38304 -3.269,5.43065 0.82656,1.35226 1.88445,1.30032 3.64742,-0.17912 1.36575,-1.14605 3.04183,-1.51888 3.72459,-0.8285 0.68281,0.69042 -0.11472,2.02261 -1.77215,2.96053 -4.08553,2.3118 -3.81353,8.03691 0.44699,9.40415 4.75583,1.52622 4.34004,5.15652 -0.86514,7.5544 -4.88803,2.25179 -5.57305,5.84128 -1.73027,9.06598 1.42746,1.19788 2.59541,3.50567 2.59541,5.12833 0,1.62274 1.14316,4.47859 2.54039,6.34653 2.22219,2.97086 2.54731,3.02562 2.59541,0.43765 0.0302,-1.62712 0.87278,-3.46945 1.87233,-4.09403 2.17477,-1.35902 12.38842,3.27911 15.45896,7.02008 2.96639,3.61398 5.69537,3.33616 8.27624,-0.84246 2.6681,-4.31991 3.63669,-4.30048 8.96058,0.17974 3.5052,2.94969 3.80279,3.84543 1.73028,5.20779 -1.37664,0.90496 -4.34646,1.20566 -6.5996,0.66824 -2.34955,-0.56043 -5.30106,0.0783 -6.9211,1.49775 -1.55352,1.36118 -6.71763,2.97889 -11.47588,3.59471 -4.75826,0.61584 -10.59794,1.46551 -12.97706,1.88791 -2.37914,0.42241 -6.35064,-0.50459 -8.82545,-2.06005 z m 11.42086,-3.68657 c 0,-5.40706 -3.34913,-4.80872 -4.02617,0.71944 -0.39521,3.2266 0.12631,4.38567 1.73027,3.84507 1.26277,-0.42563 2.2959,-2.47959 2.2959,-4.56447 z m -32.33365,-26.09748 c -0.31741,-1.68392 -2.38173,-3.32127 -4.58731,-3.63864 -3.57301,-0.51403 -3.80021,-0.18037 -2.08428,3.06165 2.36373,4.4658 7.48811,4.90895 6.67159,0.57691 z m 16.64887,-12.50061 c 0.52653,-0.86139 -0.14164,-1.99271 -1.48494,-2.5137 -1.34327,-0.5212 -2.87157,0.18368 -3.39636,1.56619 -1.03631,2.73063 3.27938,3.56828 4.88128,0.94759 z m -4.21355,-28.1759 c 0,-0.96224 -1.16795,-1.74951 -2.59541,-1.74951 -1.42748,0 -2.59542,0.78727 -2.59542,1.74951 0,0.96223 1.16794,1.74951 2.59542,1.74951 1.42746,0 2.59541,-0.78728 2.59541,-1.74951 z m -8.65137,62.92821 c 0,-4.28036 4.62086,-6.4816 7.46994,-3.55869 1.57896,1.61988 1.27917,2.6722 -1.31217,4.60612 -4.58003,3.41801 -6.15788,3.14964 -6.15788,-1.04743 z m 203.73983,-0.94577 c -2.61705,-1.43556 -4.75825,-3.76583 -4.75825,-5.17855 0,-4.59545 -7.85113,-3.82706 -13.32156,1.30355 -2.12704,1.99498 -4.98857,3.10959 -6.48853,2.52752 -3.72443,-1.4451 -3.46316,-9.76193 0.34452,-10.96542 1.6654,-0.52639 5.09464,-2.07632 7.62065,-3.44409 7.71184,-4.17609 11.84494,-3.27788 11.84494,2.57424 0,5.69133 3.74434,8.09114 8.55898,5.48576 2.3139,-1.25213 3.84242,-0.87678 5.93053,1.45618 3.55017,3.96649 3.57525,6.57135 0.0762,7.92896 -3.6912,1.43218 -4.31461,1.32487 -9.80755,-1.68824 z m -135.93384,-0.85819 c 0.41635,-1.26291 1.77889,-2.64071 3.02798,-3.06165 1.2977,-0.43737 1.94657,0.2187 1.514,1.53082 -0.41635,1.26294 -1.77889,2.64072 -3.02798,3.06165 -1.29771,0.43738 -1.94657,-0.2187 -1.514,-1.53082 z m 17.8426,-5.13919 c -1.26172,-2.06426 0.3749,-5.24854 2.69748,-5.24854 0.8955,0 1.62817,1.57457 1.62817,3.49903 0,3.68988 -2.51738,4.70793 -4.32569,1.74951 z m -137.12426,-3.73837 c -1.18957,-1.21549 -2.16285,-4.58301 -2.16285,-7.48352 0,-4.8054 0.24258,-5.02828 2.7328,-2.51021 1.53786,1.55486 2.48362,4.82743 2.16283,7.48353 -0.45767,3.79016 -0.99611,4.28474 -2.73278,2.5102 z m 262.56918,-5.88394 c 0,-1.44337 0.77861,-2.62428 1.73027,-2.62428 0.95163,0 1.73027,1.18091 1.73027,2.62428 0,1.44335 -0.77864,2.62426 -1.73027,2.62426 -0.95166,0 -1.73027,-1.18091 -1.73027,-2.62426 z m -176.34961,-3.64477 c 0.083,-2.03818 0.49304,-2.45265 1.04536,-1.05699 0.49983,1.26291 0.43837,2.77192 -0.13646,3.35328 -0.57496,0.58135 -0.98392,-0.45197 -0.90879,-2.29625 z m -8.78807,-17.82579 c 0,-2.23849 11.67435,-7.87594 13.69497,-6.61314 3.28889,2.05515 2.02251,4.46578 -2.34593,4.46578 -2.32289,0 -4.70478,0.7873 -5.29289,1.74952 -1.25495,2.05307 -6.05596,2.3685 -6.05596,0.39784 z m 54.52788,-13.28457 c -2.87726,-2.12739 -2.98559,-2.99166 -0.98592,-7.8728 1.60418,-3.91593 3.39341,-5.48316 6.25979,-5.48316 2.20749,0 4.50269,0.80014 5.10049,1.77803 0.59783,0.97791 1.92961,1.25141 2.95964,0.60772 2.36962,-1.48081 -3.27628,-5.88483 -7.54434,-5.88483 -1.67238,0 -5.11418,-1.943 -7.6485,-4.3178 -2.53435,-2.37478 -6.00631,-4.76654 -7.71549,-5.31519 -1.70927,-0.54852 -3.54462,-2.14823 -4.0784,-3.55501 -1.17156,-3.08701 -8.22747,-3.37779 -11.11494,-0.45826 -1.61493,1.63289 -2.07635,1.0497 -2.07635,-2.62425 0,-2.59803 0.77864,-4.7237 1.73028,-4.7237 0.95165,0 1.73511,-1.77138 1.74099,-3.93639 0.006,-2.16502 1.17382,-6.19136 2.59542,-8.94752 3.17559,-6.15655 3.17921,-6.36072 0.11306,-6.36072 -5.45626,0 -8.27453,-5.43906 -7.06021,-13.62643 1.54931,-10.44634 2.50508,-12.61626 5.55694,-12.61626 4.30146,0 12.35953,-6.82292 12.95613,-10.97031 0.54663,-3.80029 0.6876,-3.76548 5.4791,1.34796 4.36148,4.65459 4.79925,6.12819 3.86749,13.02233 -0.57778,4.27563 -2.50475,9.39294 -4.28207,11.37182 -7.15296,7.96433 -7.68675,11.07161 -3.63497,21.16561 3.62493,9.03045 3.98171,9.35534 9.22444,8.40151 9.39885,-1.71001 18.19903,-6.50503 18.76484,-10.22346 0.36792,-2.42273 1.86212,-3.49903 4.85705,-3.49903 5.78397,0 6.16929,6.73336 0.43257,7.55721 -2.66739,0.38303 -3.90143,1.76018 -3.91961,4.37377 -0.0145,2.09802 -0.72538,4.93119 -1.57958,6.2958 -1.63151,2.60624 1.01888,8.13385 7.39935,15.43158 3.38442,3.87095 3.38579,3.99063 0.11306,10.29028 -5.07663,9.77242 -19.80472,14.46847 -27.50963,8.77152 z m -46.81258,-22.22056 c -1.8623,-3.04659 0.25872,-3.69182 2.63191,-0.80063 1.36477,1.66271 1.49605,2.6666 0.34871,2.6666 -1.01202,0 -2.35317,-0.83966 -2.98058,-1.86586 z m 118.59475,-2.36201 c 0,-1.52352 1.23283,-2.77 2.73954,-2.77 3.05551,0 2.52345,3.76635 -0.68489,4.84755 -1.13007,0.38088 -2.05469,-0.554 -2.05469,-2.07755 z m -198.09913,-4.54803 c 0.59763,-0.97793 1.81159,-1.32512 2.6975,-0.77149 2.39989,1.49973 1.95244,2.54956 -1.0868,2.54956 -1.4837,0 -2.20852,-0.80014 -1.6107,-1.77803 z m 20.74598,-12.21806 c 0.58817,-0.96225 1.41274,-1.74952 1.83237,-1.74952 0.41963,0 0.76303,0.78727 0.76303,1.74952 0,0.96223 -0.8246,1.74951 -1.83237,1.74951 -1.0078,0 -1.35118,-0.78728 -0.76303,-1.74951 z m 44.98714,-26.24269 c 0.58818,-0.96224 1.41274,-1.74951 1.83237,-1.74951 0.41963,0 0.76303,0.78727 0.76303,1.74951 0,0.96223 -0.8246,1.74951 -1.83237,1.74951 -1.0078,0 -1.35118,-0.78728 -0.76303,-1.74951 z m 9.51651,-18.36988 c -2.37912,-1.37514 -6.99185,-2.52823 -10.25066,-2.56234 l -5.92497,-0.0619 3.76212,-4.04907 c 3.65953,-3.93886 4.98908,-8.19751 2.55909,-8.19751 -0.66168,0 -3.19963,1.93407 -5.63967,4.29785 l -4.43676,4.29785 -6.90485,-3.90788 c -7.95683,-4.50326 -9.50749,-9.55375 -4.37482,-14.25031 3.75972,-3.44023 7.32979,-2.3314 3.8433,1.19384 -2.46254,2.4899 -2.70374,6.61893 -0.38667,6.61893 1.54807,0 3.76888,-6.55053 6.07968,-17.93251 1.20502,-5.93539 2.60579,-5.95499 17.52767,-0.2431 16.56669,6.34164 21.1457,7.01677 22.54721,3.32372 1.31279,-3.45913 -1.89085,-6.07604 -7.48691,-6.11559 -4.33018,-0.0306 -16.104,-6.57186 -16.104,-8.94717 0,-0.86719 -2.72519,-1.5767 -6.05596,-1.5767 -7.22598,0 -8.10357,-3.54924 -1.73027,-6.99805 2.37911,-1.28744 4.32568,-2.97487 4.32568,-3.74974 0,-2.39894 10.38769,-6.98125 13.53576,-5.97091 1.63964,0.5262 5.59329,0.19921 8.78599,-0.72656 3.83135,-1.11105 6.9308,-1.07392 9.11733,0.10933 2.72173,1.47284 4.8427,0.49725 11.89096,-5.46949 4.71813,-3.99415 8.57837,-8.31246 8.57837,-9.59641 0,-1.28392 -1.97269,-3.90336 -4.38365,-5.821 -4.91208,-3.90683 -4.41635,-4.55486 4.76535,-6.22965 3.54066,-0.64578 8.89777,-3.26722 11.90446,-5.82536 l 5.46698,-4.65126 3.08023,3.84613 c 3.20308,3.99974 11.0037,5.21058 12.95906,2.0116 0.71899,-1.17628 1.84206,-1.23642 3.13007,-0.16753 1.10483,0.91676 3.94745,1.93918 6.31689,2.27193 5.3424,0.75027 6.56293,5.81432 2.4966,10.35746 -3.98757,4.45513 -5.34551,4.24991 -6.64996,-1.00493 -1.07623,-4.33598 -7.9409,-6.50504 -7.9409,-2.50932 0,3.55798 3.59566,8.63261 6.11686,8.63261 2.95859,0 3.11967,0.87415 0.925,5.02041 -2.4525,4.63359 0.32752,8.06525 4.43331,5.47266 2.73937,-1.72983 4.50909,-1.26733 10.61349,2.77385 4.02929,2.66728 7.326,5.53807 7.326,6.37942 0,0.84134 -2.29522,2.33873 -5.10035,3.32756 -3.76922,1.32856 -5.86544,3.82339 -8.03191,9.55933 -2.41028,6.38154 -4.29386,8.37091 -10.59397,11.18866 -4.21426,1.88492 -11.69525,3.87972 -16.62447,4.43292 -4.9292,0.55319 -11.44387,1.38662 -14.47686,1.85203 -4.93216,0.75694 -5.81718,0.20191 -8.37817,-5.25518 -6.03122,-12.85122 -8.52697,-11.92922 -13.83147,5.10944 -1.79741,5.7734 -4.76344,12.2284 -6.59112,14.34442 -3.8497,4.4569 -2.76776,11.05572 1.25873,7.67689 1.8263,-1.53252 2.61877,-1.34345 3.44014,0.82079 1.93721,5.10456 1.11532,7.77431 -2.39333,7.77431 -1.9225,0 -3.46055,-1.16635 -3.46055,-2.62428 0,-2.72364 -2.04483,-3.47243 -4.02236,-1.4731 -0.62618,0.63315 -0.27129,2.20772 0.78862,3.49902 1.55681,1.89665 0.63959,2.33595 -4.7733,2.28592 -3.68516,-0.0342 -8.64689,-1.18711 -11.026,-2.56235 z m -3.46055,-28.86695 c 0,-0.96225 -0.77862,-1.74952 -1.73027,-1.74952 -0.95166,0 -1.73027,0.78727 -1.73027,1.74952 0,0.96223 0.77861,1.74951 1.73027,1.74951 0.95165,0 1.73027,-0.78728 1.73027,-1.74951 z m 41.5266,-20.99415 c 0,-0.96225 -0.77862,-1.74951 -1.73027,-1.74951 -0.95166,0 -1.73029,0.78726 -1.73029,1.74951 0,0.96223 0.77863,1.74951 1.73029,1.74951 0.95165,0 1.73027,-0.78728 1.73027,-1.74951 z m -15.57248,-1.74951 c 0,-0.96225 -0.82457,-1.74952 -1.83236,-1.74952 -1.00778,0 -1.35116,0.78727 -0.763,1.74952 0.58814,0.96223 1.41273,1.74951 1.83236,1.74951 0.41963,0 0.763,-0.78728 0.763,-1.74951 z m -11.64647,-2.89703 c -1.17145,-0.47923 -3.50726,-0.50838 -5.19082,-0.0648 -1.68351,0.44357 -0.72505,0.83567 2.12996,0.87133 2.85497,0.0356 4.23244,-0.32727 3.06086,-0.80651 z m 44.18947,-5.98174 c -0.34099,-1.03441 -1.35968,-1.88074 -2.26371,-1.88074 -0.904,0 -1.92267,0.84633 -2.26371,1.88074 -0.34101,1.03438 0.67767,1.88072 2.26371,1.88072 1.58604,0 2.60475,-0.84634 2.26371,-1.88072 z m -29.08245,45.67976 c 0,-2.34208 6.61986,-5.70483 8.6872,-4.41297 3.76405,2.35222 1.61574,6.10089 -3.49637,6.10089 -2.85494,0 -5.19083,-0.75959 -5.19083,-1.68797 z m 131.72929,-56.64221 c -1.60696,-1.95771 -1.49147,-2.70966 0.537,-3.49676 3.12972,-1.21435 5.47216,1.98464 3.16293,4.31955 -1.05027,1.06194 -2.39918,0.76197 -3.70002,-0.8229 z m -56.03669,-30.23857 c -4.76429,-2.52404 -6.40271,-5.90461 -2.86169,-5.90461 2.77708,0 10.57075,6.57362 8.97562,7.57049 -0.74932,0.46823 -3.50052,-0.28142 -6.11393,-1.66591 z m 22.06792,-5.494 c -0.95165,-0.70695 -2.6167,-2.85993 -3.70002,-4.78439 -1.99603,-3.54573 -4.33832,-3.98818 -9.57585,-1.80865 -1.83461,0.76344 -4.20076,-0.11679 -6.4631,-2.40417 -2.99336,-3.02666 -4.25268,-3.29346 -7.80977,-1.6548 -4.22394,1.94598 -9.68053,1.08785 -9.62118,-1.513 0.0165,-0.75186 3.16865,-4.00165 7.00345,-7.22163 8.61538,-7.23442 14.20297,-6.54913 18.35303,2.25058 2.45733,5.21055 3.44428,5.83163 8.16915,5.14216 6.4655,-0.94368 13.76139,2.57316 14.61303,7.04371 0.94657,4.96983 -6.4496,8.30737 -10.96907,4.95007 z m -64.02016,-28.40333 c -0.58815,-0.96224 0.14454,-1.74951 1.62816,-1.74951 1.48364,0 2.69751,0.78727 2.69751,1.74951 0,0.96222 -0.73267,1.74952 -1.62817,1.74952 -0.89549,0 -2.10938,-0.7873 -2.6975,-1.74952 z"/>
  <path style="fill:#ffffff" d="m 279.43595,491.0641 c 3.39721,-1.24208 5.74623,-3.30011 5.74623,-5.03439 0,-6.86808 11.69961,-8.55496 18.8825,-2.72244 1.84326,1.49685 2.62326,1.44719 3.1721,-0.20211 1.01066,-3.0361 5.52806,-2.74271 6.73492,0.43737 1.49408,3.93675 5.81649,3.15823 5.81649,-1.0476 0,-2.01945 2.33589,-5.87818 5.19083,-8.57469 10.03162,-9.475 3.92097,-13.73192 -9.13309,-6.36262 -7.3618,4.15596 -17.53459,7.33396 -27.56327,8.61055 -1.62578,0.20709 -4.02806,1.86046 -5.3384,3.67434 -2.30128,3.18535 -2.69163,3.19409 -11.43851,0.25656 -4.98078,-1.67273 -11.14333,-2.61412 -13.69461,-2.09171 -20.6612,4.22962 -25.05955,8.18579 -12.85733,11.56621 13.93564,3.86081 26.51301,4.40439 34.48266,1.49043 z m 71.93615,-8.15904 c 0.53683,-2.07562 3.06555,-3.68341 6.95312,-4.42084 4.11582,-0.78073 7.57636,-3.10346 10.60502,-7.11841 5.16072,-6.8413 5.54173,-8.91167 1.90019,-10.32476 -3.58114,-1.38946 -3.26726,-4.6159 0.44893,-4.6159 1.67438,0 4.017,-1.57456 5.20536,-3.49903 1.1887,-1.92445 3.12781,-3.52369 4.30941,-3.55396 6.7036,-0.17167 12.18581,-19.29188 5.9044,-20.59352 -5.34378,-1.1071 -11.25509,1.23118 -12.40954,4.90862 -1.46826,4.67749 -7.74834,8.13226 -9.51858,5.23629 -0.82389,-1.34788 -3.17091,-1.70034 -6.4591,-0.97008 -6.34147,1.40829 -17.65228,-4.69027 -17.97757,-9.69335 -0.11907,-1.82947 -0.41094,-4.11346 -0.64885,-5.07569 -0.23792,-0.96224 -0.52991,-2.30061 -0.64885,-2.97416 -0.11907,-0.67357 -1.11419,-0.31677 -2.21165,0.79287 -1.33833,1.35322 -3.01015,1.46835 -5.07749,0.34963 -2.0047,-1.08483 -4.78508,-1.0049 -7.95372,0.22865 l -4.8716,1.89648 5.19083,2.23412 c 2.85497,1.22875 5.82654,1.87111 6.6036,1.42757 2.09969,-1.19858 6.25528,5.09107 6.31844,9.56318 0.0547,3.86695 7.83123,10.69337 9.85305,8.64906 1.69698,-1.71583 7.50471,2.22975 7.50471,5.09844 0,1.45729 -1.22426,5.04349 -2.72067,7.96919 -2.15143,4.20689 -3.5365,5.11243 -6.62089,4.32971 -3.20102,-0.81234 -4.43869,0.15199 -6.90381,5.37852 -2.98611,6.33148 -2.9778,6.39236 1.43003,10.52507 2.43847,2.28607 4.43348,4.9121 4.43348,5.83532 0,3.11063 6.5093,1.71053 7.36112,-1.58325 z m 47.45972,-51.30094 c -0.5523,-1.39566 -0.96238,-0.9811 -1.04544,1.057 -0.0744,1.84434 0.33395,2.8776 0.90891,2.29624 0.57498,-0.58137 0.6364,-2.09032 0.13667,-3.3533 z m -198.42789,-8.06962 c 0,-6.44172 -2.87901,-9.09746 -9.86257,-9.09746 -7.23965,0 -7.2663,2.77173 -0.0865,8.98636 7.21352,6.24382 9.94909,6.27445 9.94909,0.11099 z m 56.96062,-9.38912 5.91668,-5.43766 -5.91668,-4.92978 c -5.0183,-4.18133 -6.96781,-4.77495 -12.83775,-3.90981 -6.63007,0.97725 -12.72202,4.07183 -8.01569,4.07183 1.34238,0 1.80087,1.24921 1.18193,3.22085 -0.70444,2.24427 0.67295,4.63129 4.54267,7.87279 3.05447,2.55866 6.37677,4.62886 7.3829,4.60069 1.00613,-0.0282 4.49181,-2.49829 7.74611,-5.48891 z m 151.61188,-8.57523 c 0.62825,-1.02784 2.28794,-1.42429 3.68806,-0.88104 3.99191,1.54889 8.80952,-1.97836 12.00673,-8.79094 1.61209,-3.43465 4.75809,-6.94732 6.99133,-7.80597 4.60463,-1.77016 5.26629,-5.45568 1.54066,-8.58191 -3.34844,-2.80988 -6.53958,-0.61991 -5.22042,3.58267 0.71772,2.28626 0.22668,3.35171 -1.54408,3.35171 -1.79863,0 -2.56185,-1.74691 -2.48434,-5.68592 0.12797,-6.52917 2.23725,-9.80811 7.64401,-11.88653 2.28879,-0.87987 4.26703,-3.59473 4.96675,-6.81575 1.34684,-6.19974 6.0769,-7.30176 6.08261,-1.41705 0,3.62271 0.83105,3.95181 10.38164,4.12972 5.70782,0.10644 10.37785,-0.33605 10.37785,-0.98312 0,-0.64709 -2.33589,-2.92273 -5.19083,-5.05697 -6.42867,-4.80574 -7.05069,-9.56284 -1.05148,-8.04041 2.35871,0.59861 6.41014,-0.13688 9.41822,-1.70975 3.31158,-1.7315 5.67616,-2.11062 6.34457,-1.01712 1.954,3.19672 3.9523,1.80899 9.42481,-6.54458 3.2998,-5.0372 5.22993,-10.01192 4.92126,-12.68396 -0.45231,-3.91594 -1.40465,-4.45443 -8.71731,-4.92907 -8.87043,-0.57575 -9.13361,-0.94168 -10.34738,-14.38906 -0.44814,-4.96581 0.35989,-6.9424 4.12861,-10.09817 l 4.68592,-3.92381 7.03392,6.7657 c 5.04738,4.85491 7.04152,8.20102 7.06054,11.84771 0.0165,2.79521 0.76082,6.25643 1.65829,7.69173 3.32111,5.31153 6.08142,-1.42339 6.6974,-16.34115 0.49312,-11.94689 0.0882,-14.85878 -2.35006,-16.90502 -2.54644,-2.13666 -3.21399,-2.11637 -4.92161,0.14973 -1.0866,1.44204 -3.37558,2.3314 -5.08666,1.97643 -1.71125,-0.35505 -4.22221,0.28688 -5.5803,1.42649 -2.00625,1.68357 -2.83627,1.13672 -4.42743,-2.91716 -3.25412,-8.29076 -4.48903,-10.26106 -6.10286,-9.73707 -0.84783,0.27538 -1.29771,3.12427 -0.99974,6.33113 0.39674,4.26829 -0.26698,6.14428 -2.47741,7.0019 -4.12307,1.59975 -10.89831,-6.97951 -10.97929,-13.90268 -0.0553,-4.66613 0.52065,-5.30907 4.69597,-5.24854 4.14383,0.0601 4.75826,-0.60569 4.75826,-5.15564 0,-7.20973 -5.31367,-8.17075 -8.09007,-1.4634 -1.94847,4.70724 -2.07599,4.75414 -2.72086,1.00207 -0.37201,-2.16502 -1.30568,-3.93643 -2.0746,-3.93643 -1.68304,0 -5.34413,4.30085 -7.81028,9.17517 -2.58711,5.11382 -5.23583,3.18689 -5.39759,-3.92663 -0.0762,-3.3678 -0.74386,-7.50102 -1.48286,-9.18493 -1.03625,-2.3615 -0.53308,-3.06166 2.20006,-3.06166 5.96252,0 5.8689,-3.05026 -0.30679,-9.98882 -3.89086,-4.37133 -6.33539,-9.24791 -7.17233,-14.30803 -1.26052,-7.62018 -1.23577,-7.67004 3.37316,-6.77919 3.78689,0.73196 4.95101,0.0787 6.31274,-3.54275 1.27694,-3.39599 2.14675,-3.95775 3.69863,-2.38863 1.5517,1.56908 1.31363,3.27595 -1.01256,7.25769 -2.16491,3.70565 -2.71272,6.9781 -1.9007,11.35467 1.57801,8.50509 6.15095,8.11914 10.06432,-0.84952 4.37621,-10.02927 7.99404,-9.23743 7.99404,1.74951 0,8.55319 0.11597,8.74756 5.19082,8.74756 5.73534,0 6.61121,-1.87862 2.48866,-5.3381 -1.70606,-1.43174 -2.51686,-4.44062 -2.1997,-8.16358 0.39901,-4.68275 -0.32356,-6.33044 -3.51142,-8.00649 -2.48796,-1.30795 -5.13061,-5.43606 -6.95086,-10.8578 -1.61521,-4.81116 -6.23279,-13.07761 -10.26121,-18.36989 -8.09458,-10.6337 -10.41625,-16.74282 -7.48812,-19.703 1.42056,-1.43653 0.33602,-3.42904 -4.10646,-7.54338 -3.9471,-3.6556 -6.03693,-7.17491 -6.03693,-10.16641 0,-2.51632 -0.76375,-4.57515 -1.69722,-4.57515 -0.93366,0 -2.18604,-1.96821 -2.78315,-4.37378 -0.59712,-2.40558 -1.67109,-4.37378 -2.38691,-4.37378 -0.71564,0 -4.29143,-2.05183 -7.94612,-4.55959 -5.85956,-4.02056 -7.34969,-4.34069 -12.60885,-2.70877 -4.60098,1.42777 -7.33793,1.2703 -11.97575,-0.68903 -8.10721,-3.42504 -10.77997,-3.19724 -10.77997,0.91889 0,4.15195 7.49348,9.49617 13.69824,9.76944 6.42607,0.28304 6.61883,5.14847 0.31595,7.9694 -3.88308,1.73793 -5.33131,3.66976 -5.71458,7.62278 -0.40368,4.16419 -1.25237,5.1875 -3.97391,4.79174 -3.33252,-0.48464 -3.32335,-0.38758 0.24828,2.62429 2.03982,1.72012 4.20405,4.80519 4.80949,6.85564 0.69643,2.35938 3.04216,4.12061 6.38886,4.7975 6.01979,1.21733 6.01183,5.15056 -0.0165,6.04405 -2.4696,0.36628 -5.40467,-1.10411 -8.12224,-4.06903 -2.34056,-2.5534 -5.21107,-4.32445 -6.3792,-3.93554 -2.81514,0.93723 -3.77839,8.20751 -1.40531,10.60696 1.03228,1.04368 1.87682,3.11798 1.87682,4.60945 0,2.19581 -2.73469,2.79675 -14.37512,3.15856 -14.09497,0.43812 -14.4478,0.34727 -18.11079,-4.66246 -2.73072,-3.73449 -4.7169,-4.8498 -7.38187,-4.14528 -2.77156,0.73286 -3.41174,1.90801 -2.66894,4.90021 0.72856,2.93515 0.10664,4.16628 -2.44609,4.84125 -1.88271,0.49781 -4.18917,2.9425 -5.1256,5.43257 -2.06731,5.49819 -9.26096,5.78111 -15.0551,0.59212 -2.05627,-1.84153 -5.08737,-3.08018 -6.73562,-2.75249 -3.21019,0.63809 -3.72079,1.40238 -9.45561,14.15442 -3.39583,7.55108 -4.27654,8.31019 -9.63901,8.31019 -4.70063,0 -5.90163,0.69527 -5.90163,3.41661 0,3.07006 -0.87431,3.31184 -8.62056,2.38425 -5.72083,-0.68509 -9.49715,-0.29684 -11.22637,1.15422 -2.12462,1.78292 -2.8034,1.66575 -3.67649,-0.63476 -0.63837,-1.69569 -3.06259,-2.82127 -6.07121,-2.82127 -5.78377,0 -6.66276,2.99203 -1.45146,4.94115 1.95485,0.73117 4.50477,3.26442 5.66666,5.62958 1.16186,2.36499 3.84484,4.55172 5.96234,4.85911 2.80375,0.40714 3.84985,1.74572 3.84985,4.92608 0,2.40193 0.7615,5.80578 1.69219,7.56422 1.26404,2.38808 0.82627,4.31008 -1.73027,7.59636 -1.88235,2.41957 -3.42246,5.52654 -3.42246,6.90428 0,1.37768 -2.00195,3.42712 -4.4489,4.55451 -6.20026,2.85643 -4.98231,8.13436 1.87718,8.13436 4.44819,0 5.08665,-0.57825 4.58886,-4.15632 -0.56856,-4.08721 -0.41012,-4.13515 9.51651,-2.88459 5.55212,0.69945 11.40615,1.97938 13.0089,2.84417 1.60282,0.86489 4.62002,1.57253 6.70481,1.57253 3.27888,0 3.65209,0.70013 2.76464,5.18659 -0.56425,2.85259 -3.8329,9.22465 -7.2637,14.15986 -6.06823,8.72936 -6.95414,13.0888 -1.77699,8.74441 3.73843,-3.13723 6.67576,-0.45038 5.57737,5.10193 -0.51961,2.62688 -0.49211,6.52638 0.0611,8.66533 1.3413,5.18627 7.93366,3.60575 14.46977,-3.46911 3.25291,-3.52088 6.42416,-5.14829 10.03213,-5.14829 2.90168,0 5.89851,-1.05392 6.65949,-2.34207 2.94179,-4.97929 7.65455,-6.03879 14.59658,-3.28138 3.67683,1.46039 6.68526,3.62044 6.68526,4.79996 0,1.17955 1.17656,3.13198 2.61463,4.33861 2.11681,1.77629 4.10939,1.61679 10.46556,-0.83764 6.74029,-2.60276 8.63476,-2.70879 13.39043,-0.74922 6.59062,2.71559 9.73504,6.35651 9.81013,11.35923 0.0294,2.01597 1.61228,5.09022 3.51557,6.83186 1.90331,1.74164 3.46055,4.19796 3.46055,5.45847 0,4.30625 -5.59449,19.02594 -9.16681,24.11878 l -3.56646,5.08496 6.7993,-1.09926 c 9.74335,-1.57526 14.58534,0.0988 14.58534,5.04245 0,2.2455 1.33664,4.83916 2.97021,5.76358 2.61755,1.48114 2.68936,2.21139 0.60438,6.1506 -1.9919,3.7632 -1.99501,4.92172 -0.0207,7.32801 1.29027,1.57198 2.17393,5.14165 1.96351,7.93246 -0.37891,5.0295 1.87268,6.80228 4.07116,3.20546 z m -2.66827,-16.59186 c 0,-4.66314 6.79358,-18.24217 9.13828,-18.2649 2.4132,-0.024 3.48823,5.41457 1.47314,7.45205 -1.07795,1.09 -1.96005,3.7282 -1.96005,5.86261 0,6.1812 -1.84671,9.41551 -5.37597,9.41551 -2.35801,0 -3.2754,-1.25042 -3.2754,-4.46456 z m -89.95006,-86.94726 c 0.0601,-5.5505 2.34296,-9.81983 5.72998,-10.71541 5.53705,-1.46406 6.9917,1.34052 3.86579,7.45275 -2.76638,5.40896 -9.64422,7.74753 -9.59577,3.26266 z m 42.29656,-3.17799 c -0.62726,-1.02624 -0.72503,-2.28591 -0.21722,-2.7994 1.23943,-1.25319 4.61412,0.95494 4.61412,3.01914 0,2.23588 -2.98716,2.08663 -4.39681,-0.21965 z m -31.07399,-17.37878 c -0.69064,-1.12993 -0.47712,-2.84174 0.47454,-3.80397 1.15352,-1.16633 2.14882,-1.06472 2.98594,0.30488 0.69063,1.12992 0.47709,2.84174 -0.47454,3.80395 -1.15354,1.16636 -2.14885,1.06472 -2.98594,-0.30486 z m 32.01007,-9.62231 c -2.33811,-2.84856 -1.77889,-3.2046 2.45388,-1.56233 1.50532,0.58405 2.73695,1.7649 2.73695,2.62426 0,2.41993 -2.80373,1.84645 -5.19083,-1.06193 z m 59.87443,-42.14576 c -1.26846,-3.34262 0.28757,-6.42071 2.53555,-5.01586 2.05868,1.28644 2.11335,7.79811 0.0657,7.79811 -0.84991,0 -2.02027,-1.25197 -2.60113,-2.78209 z m -2.7565,-15.5654 c -2.22774,-2.71385 -1.27883,-7.89504 1.44581,-7.89504 2.80374,0 5.5457,4.72858 4.43661,7.65097 -1.34252,3.53733 -3.11883,3.61099 -5.88242,0.24402 z m 11.32032,-1.33441 c -1.4164,-4.66018 -2.48727,-20.79821 -1.54496,-23.28077 1.44513,-3.80782 5.77877,0.2781 5.77877,5.44833 0,2.22503 0.77881,6.11664 1.73044,8.64784 1.16811,3.10644 1.1484,5.70237 -0.0605,7.98671 -2.03862,3.85153 -4.91934,4.43587 -5.90353,1.19758 z m -13.93408,-25.80531 c 0.58813,-0.96224 1.8021,-1.74952 2.69751,-1.74952 0.89557,0 1.62818,0.78728 1.62818,1.74952 0,0.96224 -1.21397,1.74951 -2.6975,1.74951 -1.48371,0 -2.21631,-0.78727 -1.62819,-1.74951 z m -30.2798,209.94148 c 0,-0.96223 -1.21397,-1.74951 -2.69751,-1.74951 -1.4837,0 -2.21631,0.78728 -1.62818,1.74951 0.58813,0.96224 1.80209,1.74951 2.6975,1.74951 0.89559,0 1.62819,-0.78727 1.62819,-1.74951 z m -76.23244,-6.00135 c 1.64034,-1.99847 1.35575,-2.88004 -1.4134,-4.37851 -3.9272,-2.12514 -6.36014,0.0978 -4.75012,4.34036 1.22372,3.22436 3.53651,3.23871 6.16342,0.0381 z m -153.89409,-5.02059 c 0,-2.21312 0.84425,-4.87745 1.87614,-5.92086 1.34792,-1.36294 0.93072,-2.5697 -1.48205,-4.2863 -1.84689,-1.31414 -3.89357,-4.10365 -4.54813,-6.1987 -0.65455,-2.09521 -3.68602,-5.29981 -6.73665,-7.12157 -6.87577,-4.10575 -11.3115,-17.4031 -7.73623,-23.19154 1.7948,-2.90611 1.45551,-4.71669 -2.12704,-11.34769 -2.34435,-4.33948 -4.71293,-7.88995 -5.26349,-7.88995 -0.55039,0 -2.42912,3.27333 -4.1748,7.27413 -2.3973,5.49381 -2.71705,8.01434 -1.30636,10.29816 1.02725,1.66322 2.42049,7.96376 3.09598,14.00099 0.67568,6.0374 2.4762,12.43115 4.00125,14.20831 1.52525,1.77734 3.61731,6.1777 4.6489,9.77873 1.46157,5.10088 2.85532,6.66565 6.30876,7.08325 2.43795,0.29484 5.80231,2.06618 7.47618,3.9364 4.02558,4.49764 5.96765,4.2947 5.96765,-0.6235 z m -34.45843,-15.68541 c -1.96766,-5.99891 -4.08154,-14.84358 -4.69751,-19.65403 -0.6158,-4.81117 -1.84049,-10.16782 -2.72119,-11.9035 -2.86951,-5.65549 -2.14834,-39.54948 1.16134,-54.57778 1.69534,-7.69786 4.01043,-15.17703 5.14481,-16.62038 1.20479,-1.53293 1.97805,-7.71709 1.85951,-14.87085 -0.15055,-9.12581 0.53622,-13.13815 2.69751,-15.74561 1.59515,-1.92447 3.84155,-7.58344 4.99202,-12.57568 3.6237,-15.72374 14.42684,-29.52127 18.23535,-23.2895 0.58813,0.96222 2.38606,1.7544 3.99521,1.76035 1.60926,0.006 5.15605,1.18685 7.88192,2.62427 7.27442,3.83598 9.71447,3.23714 10.88308,-2.67151 0.57496,-2.90663 1.64992,-5.66282 2.38883,-6.12451 1.54611,-0.96618 -1.99952,-9.55059 -3.95334,-9.57105 -0.71374,-0.006 -1.29771,1.43889 -1.29771,3.21421 0,3.85522 -6.13192,9.9757 -7.59539,7.58133 -0.55982,-0.9159 0.14164,-2.63809 1.5585,-3.82725 1.41699,-1.18907 2.57639,-3.20946 2.57639,-4.48959 0,-3.44479 3.79258,-11.23991 5.46852,-11.23991 0.79888,0 1.45254,1.57456 1.45254,3.49902 0,4.12483 1.38277,4.31518 5.95405,0.81913 1.84724,-1.41276 4.52223,-2.56864 5.94453,-2.56864 1.42228,0 4.28034,-1.60967 6.35149,-3.57705 l 3.76576,-3.57705 1.05574,6.57799 c 0.84913,5.29086 0.31225,7.37804 -2.7437,10.66729 -3.2249,3.47087 -3.41384,4.336 -1.24938,5.71986 3.86802,2.47329 5.0749,2.10939 11.28485,-3.40367 4.78645,-4.24921 7.81842,-5.28405 18.39627,-6.27901 6.96593,-0.65509 13.4439,-1.02784 14.39556,-0.82828 7.55281,1.58368 8.00492,-3.3309 0.86513,-9.40539 -6.43957,-5.47877 -6.54494,-7.73564 -0.43257,-9.26541 2.61703,-0.65499 5.77566,-2.63828 7.01919,-4.40702 1.61947,-2.30376 4.4617,-3.2163 10.01761,-3.2163 6.76521,0 8.62368,-0.89446 14.54071,-6.99805 3.73116,-3.84892 7.99386,-6.99805 9.47238,-6.99805 1.47854,0 6.78909,-3.37726 11.80117,-7.50506 5.01209,-4.1278 10.80401,-8.70277 12.87117,-10.16677 3.16692,-2.24287 7.38169,-9.82282 7.38169,-13.27529 0,-0.53764 -4.22705,-0.62308 -9.3933,-0.1899 -8.32332,0.69791 -9.49767,0.38424 -10.30933,-2.75388 -0.50379,-1.94792 0.0247,-4.68992 1.17445,-6.09357 1.81663,-2.21768 0.11576,-2.39017 -12.98501,-1.31719 -39.66655,3.24885 -86.66946,27.00549 -118.15525,59.72135 -8.36961,8.69596 -22.31544,25.89804 -29.74698,36.69253 -7.17684,10.42376 -19.32372,44.02647 -23.85704,65.9951 -3.089733,14.97513 -3.428018,45.34037 -0.70299,63.13291 3.38459,22.10158 18.43952,63.12941 20.17326,54.98018 0.36162,-1.69895 -0.95253,-7.99721 -2.92018,-13.9961 z m 39.64925,-201.71879 c 0,-1.37742 7.36873,-7.6256 9.08395,-7.70257 3.21814,-0.14433 0.81121,3.60541 -3.89312,6.06503 -2.85495,1.49277 -5.19083,2.22958 -5.19083,1.63751 z m 67.48071,-14.8621 c 0,-1.01902 0.77863,-1.36619 1.73028,-0.7715 0.95166,0.5947 1.73027,1.42844 1.73027,1.85274 0,0.42429 -0.77861,0.7715 -1.73027,0.7715 -0.95165,0 -1.73028,-0.83374 -1.73028,-1.85274 z m 7.12096,-19.46681 c -6.40947,-6.91495 -6.75103,-9.73606 -1.42649,-11.78298 2.18032,-0.83817 5.00741,-2.79485 6.28227,-4.34807 1.27487,-1.55321 6.63214,-4.09227 11.9048,-5.64217 8.03246,-2.36115 11.08121,-2.47976 18.80464,-0.73208 7.6774,1.73724 9.4056,2.84123 10.33994,6.60548 0.61702,2.4857 0.35583,5.74749 -0.58042,7.24822 -2.75615,4.41787 -15.84913,10.20702 -25.40735,11.23396 -4.87869,0.52425 -10.14651,1.46234 -11.70636,2.08474 -1.89809,0.75728 -4.61377,-0.78637 -8.21083,-4.667 z m 11.91206,243.51462 c 2.0329,-2.88671 5.10502,-5.24854 6.82698,-5.24854 4.29488,0 7.31423,4.12097 5.92619,8.08834 -0.6318,1.80585 0.91202,0.29613 3.43061,-3.35503 2.51859,-3.65107 4.57936,-7.78429 4.57936,-9.18494 0,-1.50152 1.65684,-2.5466 4.03724,-2.5466 4.91728,0 6.40409,-1.30578 5.1749,-4.54489 -1.43185,-3.77282 -5.94037,-2.92499 -11.11788,2.09069 -3.34514,3.24044 -5.73033,4.21 -8.31518,3.38056 -3.09925,-0.99461 -3.4749,-2.11007 -2.59143,-7.69644 1.27491,-8.06159 -3.0631,-19.91647 -6.76277,-18.48186 -2.96155,1.14913 -5.36974,-6.21093 -2.86188,-8.74669 2.91586,-2.94827 1.8263,-4.49135 -3.17123,-4.49135 -2.66465,0 -5.75353,-0.91892 -6.86437,-2.04201 -2.51668,-2.54468 -3.5114,-0.21831 -4.61342,10.78957 -1.05414,10.52892 -3.64951,20.54628 -6.09508,23.5257 -1.12952,1.37614 -1.76746,6.47914 -1.46884,11.74991 0.49716,8.77556 0.82971,9.38211 5.71874,10.43217 11.09141,2.38196 14.33912,1.71707 18.16788,-3.71981 z m 238.77791,-3.9275 c 0,-0.97592 -1.1477,-0.78647 -2.59541,0.42846 -1.42749,1.19787 -2.59542,2.96523 -2.59542,3.92747 0,0.97592 1.1477,0.78648 2.59542,-0.42843 1.42748,-1.19787 2.59541,-2.96526 2.59541,-3.9275 z m -147.07335,2.17799 c 0,-0.96224 -1.60321,-1.74951 -3.56263,-1.74951 -1.95944,0 -3.08145,0.78727 -2.49333,1.74951 0.58813,0.96221 2.1914,1.74951 3.56265,1.74951 1.37123,0 2.49331,-0.7873 2.49331,-1.74951 z m -57.2271,-21.71322 c 1.38509,-1.68751 1.45213,-2.82719 0.21186,-3.60223 -2.41614,-1.50984 -5.27489,0.41402 -5.27489,3.54976 0,3.21229 2.44867,3.23765 5.06295,0.0524 z m 34.30096,-6.71638 c -0.39652,-1.20278 -1.75916,-2.18688 -3.02797,-2.18688 -1.26882,0 -2.63141,0.9841 -3.02799,2.18688 -0.42886,1.30095 0.79786,2.18691 3.02799,2.18691 2.23014,0 3.45692,-0.88596 3.02797,-2.18691 z m -183.75516,-47.39603 c -4.59943,-3.40051 -2.87296,-10.54885 2.81065,-11.63811 2.54298,-0.48729 6.37225,-3.14648 8.50931,-5.90914 2.13707,-2.76266 6.29371,-6.04036 9.23674,-7.28376 2.94303,-1.24334 7.67861,-4.47437 10.5237,-7.18017 2.84492,-2.70579 5.85423,-4.70932 6.68699,-4.4525 0.83286,0.25692 2.94821,-0.84503 4.70098,-2.4488 1.7526,-1.60377 5.15899,-2.91591 7.56961,-2.91591 6.33488,0 5.40088,-3.70196 -2.53814,-10.0597 -8.28316,-6.63345 -8.54201,-9.60342 -2.01422,-23.12504 2.65615,-5.5017 4.00127,-9.40556 2.98924,-8.67514 -4.51413,3.25777 -15.53112,6.01535 -16.17928,4.0496 -0.36113,-1.09545 -2.84424,-1.99165 -5.51819,-1.99165 -2.72519,0 -5.29915,-1.15321 -5.8575,-2.62426 -1.85295,-4.88219 -4.56516,-2.66259 -4.56516,3.73572 0,4.53684 -1.24009,7.52204 -4.32568,10.41346 -5.22336,4.89462 -5.51648,9.58662 -0.86513,13.84283 5.04269,4.61434 4.35941,10.48642 -1.73029,14.87087 -2.85496,2.05549 -5.19082,5.0106 -5.19082,6.56697 0,1.55635 -1.42489,4.45513 -3.16658,6.44152 -1.7417,1.9864 -4.07756,6.85231 -5.19082,10.81286 -2.17221,7.7276 -2.78748,32.55842 -0.85511,34.51089 0.64297,0.65013 2.70063,-2.39562 4.57277,-6.76835 3.21901,-7.51905 3.24047,-8.07102 0.39674,-10.17341 z m 350.2941,14.59338 c 0,-0.96222 -1.16793,-1.74951 -2.59542,-1.74951 -1.42747,0 -2.59541,0.78729 -2.59541,1.74951 0,0.96223 1.16794,1.74951 2.59541,1.74951 1.42749,0 2.59542,-0.78728 2.59542,-1.74951 z m -5.73915,-10.82509 c -0.5523,-1.39566 -0.96238,-0.9811 -1.04542,1.057 -0.0744,1.84433 0.33394,2.8776 0.90891,2.29622 0.57496,-0.58135 0.63638,-2.0903 0.13668,-3.35329 z m -273.418,-2.2555 c 2.00625,-1.42089 4.1267,-4.51232 4.71189,-6.86996 1.30748,-5.26744 5.57303,-6.44101 11.93404,-3.28366 3.11518,1.54622 5.18269,4.24204 5.85317,7.63225 1.20624,6.0981 4.84754,5.87764 5.02162,-0.30399 0.0652,-2.31739 0.7179,-5.5526 1.45033,-7.18944 0.90062,-2.01264 -0.11804,-4.89777 -3.14668,-8.91273 -2.46305,-3.2651 -4.50113,-6.64953 -4.529,-7.52096 -0.0278,-0.87142 -2.46357,-4.26829 -5.41247,-7.54863 -4.32136,-4.80713 -6.9621,-6.11979 -13.61051,-6.76571 -7.24534,-0.70393 -8.39027,-0.35086 -9.41148,2.90261 -0.63948,2.03713 -2.51167,3.70408 -4.16062,3.70408 -1.64884,0 -3.94866,0.96137 -5.1109,2.13631 -1.16221,1.17497 -3.83445,2.15908 -5.93846,2.18691 -2.34366,0.0308 -4.07152,1.32683 -4.46031,3.34522 -0.53215,2.76214 0.0952,3.10943 3.88204,2.14858 3.68877,-0.93612 4.87055,-0.36114 6.44666,3.13653 l 1.92996,4.28264 3.84915,-4.6817 c 2.117,-2.57493 4.77089,-6.45308 5.89749,-8.6181 4.10922,-7.89747 8.84758,-3.88986 8.84758,7.48301 0,4.68222 -0.96413,6.35196 -4.71793,8.1711 -5.09342,2.46839 -8.57785,9.75687 -6.84585,14.32011 1.32839,3.50025 2.85477,3.55012 7.52065,0.24553 z m 67.50494,-7.21533 c 1.18435,-3.12077 -2.36893,-6.18644 -6.3624,-5.48926 -1.42748,0.24917 -2.84422,2.21645 -3.14839,4.37167 -0.45115,3.19725 0.27543,3.91857 3.94743,3.91857 2.53018,0 4.96573,-1.22613 5.56336,-2.80079 z m 5.74952,-10.42377 c 0,-2.88686 -2.73452,-3.37444 -4.32568,-0.77149 -1.41106,2.30848 0.65787,5.58462 2.71498,4.29907 0.88588,-0.55358 1.6107,-2.14106 1.6107,-3.52754 z m 222.42682,-0.92393 c 0.63933,-1.04608 0.2635,-2.81094 -0.83522,-3.92171 -1.51,-1.52675 -2.39591,-1.38277 -3.62923,0.58982 -0.89751,1.4353 -1.64378,3.20003 -1.6583,3.9217 -0.0416,2.02087 4.81276,1.55326 6.12275,-0.58981 z m -5.16385,-32.35199 c -1.30392,-5.25325 -2.92172,-5.35542 -5.99574,-0.37843 -1.78235,2.88582 -1.86281,4.03192 -0.31959,4.55205 1.13439,0.38233 2.99235,1.71836 4.1288,2.96891 1.68598,1.85536 2.17408,1.79711 2.65215,-0.31668 0.32218,-1.4248 0.11245,-4.49642 -0.46562,-6.8259 z m -249.28066,0.42997 c 0,-4.56027 -3.3929,-4.27405 -4.03881,0.34064 -0.39636,2.83229 0.14765,3.88672 1.73028,3.3533 1.26964,-0.42791 2.30853,-2.09013 2.30853,-3.69392 z m 2.59541,-25.05652 c 0,-3.61449 -4.83748,-2.79064 -6.9403,1.18208 -2.71931,5.13762 -0.35392,7.84551 3.65139,4.18046 1.80885,-1.65517 3.28874,-4.06831 3.28874,-5.3626 z m 92.73061,-40.73915 c 3.90264,-9.86216 9.76066,-13.35297 17.86855,-10.64751 11.90153,3.97155 23.421,-0.77283 13.25217,-5.4578 -5.28617,-2.43531 -5.92567,-6.74227 -1.00105,-6.74227 4.06374,0 4.47916,-2.21593 0.96785,-5.16228 -1.37099,-1.15047 -2.73349,-4.19918 -3.02798,-6.77482 -0.77919,-6.81714 -6.28505,-6.11715 -10.21866,1.29926 -3.99398,7.52991 -6.30824,8.97326 -11.30664,7.05177 -2.42861,-0.93362 -4.38297,-0.86336 -5.02109,0.18057 -1.07466,1.75825 -12.15188,6.90462 -14.8615,6.90462 -0.83544,0 -1.51918,-0.98409 -1.51941,-2.18689 -2.9e-4,-1.39646 -2.77882,-2.24673 -7.68779,-2.35221 -6.83926,-0.14724 -7.90649,0.36969 -9.67413,4.68465 -1.09277,2.6675 -3.47301,6.2099 -5.28928,7.87195 -4.72365,4.32233 -4.10248,7.19679 2.321,10.74076 9.78886,5.40077 15.76884,7.21447 24.23767,7.35129 8.01048,0.12942 8.30654,-0.0532 10.96096,-6.76098 z m 16.72916,-57.377 c 1.82613,-1.67095 4.61257,-3.04869 6.19214,-3.06164 3.95523,-0.0323 4.09332,-11.07967 0.16483,-13.20531 -2.77779,-1.50314 -18.76137,-4.7802 -31.46505,-6.45151 -6.72626,-0.88485 -7.9198,0.70487 -5.43824,7.24369 1.29513,3.41259 7.60109,3.68657 7.60109,0.33027 0,-3.56517 5.42078,-5.07832 8.18403,-2.28434 1.90174,1.92288 1.96801,3.31689 0.33048,6.95082 -2.52776,5.60945 -1.1647,9.60376 3.99156,11.69792 5.65195,2.29519 6.73701,2.16852 10.4398,-1.21974 z m 27.23279,-8.16165 c -6.45548,-3.45056 -15.23767,-5.33932 -12.7047,-2.73221 1.10139,1.13361 4.60512,2.68323 7.78623,3.44376 8.54409,2.04254 9.7456,1.86881 4.91847,-0.71148 z m -69.21099,-15.91757 c -7.15087,-2.78436 -13.84219,-3.27772 -13.84219,-1.02056 0,2.40331 3.46349,3.36799 12.11192,3.37358 l 7.78624,0.006 z"/>
</g>
<g id="falcon" style="fill:#0088ee;stroke:#0052af;stroke-width:1;stroke-linecap:round;stroke-linejoin:round;">
  <path id="body" d="m 278.83225,154.03729 c 3.97381,-3.00059 10.94825,-2.6989 17.00028,-2.7331 3.63122,-0.0205 11.99045,0.94645 17.51122,2.96143 14.72202,5.37326 20.01486,16.57891 19.375,27.61915 -0.45833,7.90801 -1.91178,11.75619 -1.42578,21.74609 15.48621,-5.17588 17.28571,-17.00729 27.21289,-24.94922 l 0,0 c 14.69713,-11.75795 41.32682,15.58937 56.40039,36.74609 4.15287,5.82882 6.28175,12.78573 -1.42383,6.26563 9.3447,31.19895 70.90451,123.02375 70.23828,134.95508 -0.20978,3.7571 -3.88938,0.26049 -6.38672,-2.64453 -0.11747,4.34063 5.0854,8.45741 3.23243,10.25976 -3.85509,3.7498 -12.82032,-10.11328 -12.82032,-10.11328 -0.19373,2.25808 2.54674,6.66405 1.07032,6.86133 -4.48925,0.60726 -7.10532,-7.38997 -9.75782,-11.8457 -0.20489,2.13495 1.40364,5.04906 0,6.26757 -5.02746,4.43287 -9.83321,-10.0896 -13.81445,-16.23828 -0.21652,3.75276 0.82163,6.30505 -1.7207,7.91797 -5.48467,3.79194 -9.22151,-8.23113 -12.94922,-14.04101 -0.20709,1.6568 0.0456,4.49171 -1.56641,4.69921 -6.94777,0.8943 -11.96484,-13.38867 -11.96484,-13.38867 -0.72873,1.63964 -1.49343,2.58952 -3.13281,2.2793 -6.64643,-1.2577 -11.55612,-15.10448 -15.38282,-21.75781 -0.65079,1.73542 -2.15689,1.76788 -4.09179,1.51367 -5.33231,-0.70057 -14.19698,-17.25638 -16.41797,-22.19922 -16.43598,-9.03238 -22.45801,-5.72477 -38.06446,11.61719 -26.19613,57.76692 36.08022,121.83662 18.66407,118.54101 -12.51812,-2.36877 -13.83368,-6.89203 -18.95313,-13.72851 -1.57141,10.87677 15.20261,30.76138 3.83985,28.63672 -10.96752,-2.05076 -16.66948,-9.51071 -20.73438,-17.22852 -3.77774,12.28676 11.33268,30.95534 0.0332,27.66211 -6.41927,-1.8709 -13.039,-8.44243 -15.73632,-17.42187 -0.24799,15.77566 -0.66122,23.48242 -7.06641,23.48242 -6.40519,0 -6.81842,-7.70676 -7.06641,-23.48242 -2.69732,8.97944 -9.31705,15.55097 -15.73632,17.42187 -11.29948,3.29323 3.81094,-15.37535 0.0332,-27.66211 -4.0649,7.71781 -9.76686,15.17776 -20.73438,17.22852 -11.36276,2.12466 5.41126,-17.75995 3.83985,-28.63672 -5.11945,6.83648 -6.43501,11.35974 -18.95313,13.72851 -17.41615,3.29561 44.8602,-60.77409 18.66407,-118.54101 -15.60645,-17.34196 -21.62848,-20.64957 -38.06446,-11.61719 -2.22099,4.94284 -11.08566,21.49865 -16.41797,22.19922 -1.9349,0.25421 -3.441,0.22175 -4.09179,-1.51367 -3.8267,6.65333 -8.73639,20.50011 -15.38282,21.75781 -1.63938,0.31022 -2.40408,-0.63966 -3.13281,-2.2793 0,0 -5.01707,14.28297 -11.96484,13.38867 -1.61201,-0.2075 -1.35932,-3.04241 -1.56641,-4.69921 -3.72771,5.80988 -7.46455,17.83295 -12.94922,14.04101 -2.54233,-1.61292 -1.50418,-4.16521 -1.7207,-7.91797 -3.98124,6.14868 -8.78699,20.67115 -13.81445,16.23828 -1.40364,-1.21851 0.20489,-4.13262 0,-6.26757 -2.6525,4.45573 -5.26857,12.45296 -9.75782,11.8457 -1.47642,-0.19728 1.26405,-4.60325 1.07032,-6.86133 0,0 -8.96523,13.86308 -12.82032,10.11328 -1.85297,-1.80235 3.3499,-5.91913 3.23243,-10.25976 -2.49734,2.90502 -6.17694,6.40163 -6.38672,2.64453 -0.66623,-11.93133 60.89358,-103.75613 70.23828,-134.95508 -7.70558,6.5201 -5.5767,-0.43681 -1.42383,-6.26563 15.07357,-21.15672 41.70326,-48.50404 56.40039,-36.74609 h 0 c 10.86991,8.69613 12.00343,22.05203 32.02344,26.23047 1.39345,-3.65525 3.35362,-9.00116 4.07812,-12.31641 2.13026,-9.74785 -2.34835,-15.81501 -3.0688,-16.67992 -0.69739,-0.83724 -1.7629,-3.56277 -8.38959,-6.02917"/>
  <path id="feathers" style="fill:none" d="m 292.93359,422.29688 c 3.1476,-24.65139 3.16927,-54.86459 1.81641,-75.92188 m -17.51953,65.68164 c 7.96729,-16.85321 7.88802,-48.87109 8.89453,-70.18164 m -25.78906,58.77344 c 7.20613,-11.12597 16.4378,-44.27833 17.93919,-64.25199 m -56.29271,-52.1777 c 5.10235,-8.34974 8.96726,-25.09638 18.22387,-41.2243 m -53.68871,-21.30109 c 10.36914,-9.89779 20.73828,-19.79557 31.10742,-29.69336 m -16.15234,112.9043 c 7.73259,-11.66235 16.90672,-38.18022 33.5428,-63.59777 m -52.05843,83.07628 c 14.93099,-26.46094 27.39079,-59.05728 46.91429,-88.92875 m -60.44554,97.61821 c 3.54557,-6.58659 32.44838,-70.14742 56.49884,-102.49994 m -71.16876,108.62298 c 3.64388,-7.23177 47.8337,-91.27967 69.09338,-114.65115 m -82.90783,124.62186 c 2.40758,-4.55874 59.43916,-105.10722 81.02701,-132.91209 m -89.71451,137.89646 c 4.18658,-6.04047 49.2838,-94.44476 88.78557,-146.31944 m -98.37346,146.17296 c 3.36716,-3.72475 72.07646,-137.48927 97.24242,-152.3954"/>
  <use transform="matrix(-1,0,0,1,600,0)" xlink:href="#feathers"/>
  <g id="beak">
    <path style="fill:#007ade;" d="m 285.64969,175.31399 c -1.34389,-0.42964 -1.68328,-0.79389 -2.35523,-1.29549 -1.46915,-1.09669 -2.97125,-2.1566 -4.60784,-2.98284 -1.56596,-0.79058 -3.87317,-0.0283 -5.62116,-0.17585 -2.79291,-0.23577 -4.28241,-0.048 -6.92815,-0.9732 -2.38075,-0.83253 -3.49556,-1.95713 -5.16665,-3.84619 -0.50793,-0.57418 -0.85235,-1.48676 -0.80715,-2.64185 4.68124,-0.8625 12.45239,0.67989 17.99461,3.39445 3.56192,1.74461 8.05628,6.38817 7.49157,8.52097 z"/>
    <path style="fill:#007ade;" d="m 257.5,172.5625 c -0.19153,-3.22715 -1.25495,-6.26219 0.6875,-10.3125 1.04875,-2.1868 2.98868,-4.14487 6,-5.9375 2.35266,-1.40053 5.25585,-1.56816 7.6875,-1.8125 1.69408,-0.84174 5.01317,-1.08972 6.95725,-0.46271 1.59758,2.98757 1.53892,6.53764 0.66775,9.15021 3.01865,1.47966 5.69354,6.92808 6.14969,12.12649 -1.57073,-1.7505 -3.3962,-4.64883 -5.27469,-6.06399 -3.79613,-2.85981 -7.21543,-3.78521 -10.40625,-4.5 -1.57658,-0.35318 -5.57735,-0.42243 -7.03125,0.625 -1.15881,-0.27045 -2.74196,-0.3335 -3.40625,0.9375 -1.08342,2.07295 -1.63542,3.98958 -2.03125,6.25 z"/>
    <path style="fill:#0052af;stroke:none;" d="m 275.009,159.05741 c -0.0319,0.54508 -0.2849,1.10534 -0.0956,1.62843 0.15427,0.42634 0.86561,0.46514 1.25404,0.3161 0.63612,-0.24408 0.64217,-1.07171 0.68315,-1.65685 0.046,-0.65609 0.1442,-1.32541 0.0387,-1.97784 -0.11161,-0.6905 -0.56805,-1.37407 -1.23025,-1.66014 -0.54606,-0.23589 -1.40323,-0.0249 -1.21974,0.76529 0.1835,0.79021 0.62516,1.63647 0.56967,2.58501 z"/>
  </g>
  <g id="eye">
    <path style="fill:#ffffff;" d="m 287.03604,159.0763 c 0.0242,2.01388 2.8234,5.34539 6.24632,5.38619 3.43023,-0.033 6.22996,-3.48084 6.27956,-5.48741 -0.0906,-2.09495 -2.89339,-1.62737 -6.32363,-1.59438 -3.43753,0.10682 -6.21912,-0.39205 -6.20225,1.6956 z"/>
    <path style="fill:#003377;stroke:none;" d="m 290.24645,160.51154 a 2.6911719,2.8090497 5.6524808 0 0 2.37848,3.06639 2.6911719,2.8090497 5.6524808 0 0 2.93342,-2.54064 2.6911719,2.8090497 5.6524808 0 0 -2.37847,-3.06638 2.6911719,2.8090497 5.6524808 0 0 -2.93343,2.54063 z"/>
    <path style="fill:#000000;stroke:none;" d="m 293.10762,159.45374 c 0.66398,0.0657 1.27686,0.64788 1.19653,1.45942 -0.0803,0.81154 -0.79542,1.26226 -1.45941,1.19654 -0.81154,-0.0803 -1.42441,-0.66247 -1.34408,-1.47401 0.0803,-0.81155 0.79542,-1.26227 1.60696,-1.18195 z"/>
    <path style="fill:#ffffff;stroke:none;" d="m 292.33258,159.00454 c 0.44266,0.0439 0.8415,0.53029 0.79039,1.04672 -0.0584,0.59021 -0.53758,0.91529 -0.98025,0.87147 -0.5902,-0.0583 -0.99635,-0.47111 -0.93794,-1.06132 0.0511,-0.51644 0.53759,-0.91528 1.1278,-0.85687 z"/>
  </g>
</g>
<use xlink:href="#shield" style="fill:url(#rg);stroke:#000000;stroke-width:3;"/>
</svg>
